<?xml version="1.0" encoding="utf-8"?>
<!-- Generator: Adobe Illustrator 16.0.4, SVG Export Plug-In . SVG Version: 6.00 Build 0)  -->
<!DOCTYPE svg PUBLIC "-//W3C//DTD SVG 1.1//EN" "http://www.w3.org/Graphics/SVG/1.1/DTD/svg11.dtd">
<svg version="1.1" id="Layer_1" xmlns="http://www.w3.org/2000/svg" xmlns:xlink="http://www.w3.org/1999/xlink" x="0px" y="0px"
	 width="1100px" height="1200px" viewBox="0 0 1100 1200" enable-background="new 0 0 1100 1200" xml:space="preserve">
<g>
	<path fill="#7C8D9B" d="M88.581,123.856H30.554V45.197h37.662l20.365,20.365V123.856z M31.844,122.567h55.448V66.096l-19.61-19.609
		H31.844V122.567z"/>
	<path fill="#7C8D9B" d="M88.581,123.856H30.554V45.197h37.395v20.632h20.632V123.856z M31.844,122.567h55.448V67.119H66.66V46.487
		H31.844V122.567z"/>
	<g>
		<path fill="#7C8D9B" d="M45.119,114.798h-1.625v-1.986h1.625V114.798z"/>
		<path fill="#7C8D9B" d="M48.639,114.798h-1.264v-11.735h1.264v5.236h3.557v-5.236h1.264v11.735h-1.264v-5.416h-3.557V114.798z"/>
		<path fill="#7C8D9B" d="M60.68,103.063v1.084h-2.347v10.651H57.07v-10.651h-2.347v-1.084H60.68z"/>
		<path fill="#7C8D9B" d="M63.208,114.798h-1.264v-11.735h1.896l2.058,7.745l2.077-7.745h1.895v11.735h-1.264v-9.713l-2.112,7.908
			H65.32l-2.112-7.908V114.798z"/>
		<path fill="#7C8D9B" d="M72.396,114.798v-11.735h1.264v10.652h3.304v1.083H72.396z"/>
	</g>
</g>
<g>
	<path fill="#7C8D9B" d="M617.033,501.772h-58.026v-78.658h37.662l20.364,20.364V501.772z M560.297,500.483h55.447v-56.472
		l-19.609-19.608h-35.838V500.483z"/>
	<path fill="#7C8D9B" d="M617.033,501.772h-58.026v-78.658h37.396v20.631h20.631L617.033,501.772L617.033,501.772z M560.297,500.483
		h55.447v-55.448h-20.631v-20.632h-34.816V500.483L560.297,500.483z"/>
	<g>
		<path fill="#7C8D9B" d="M573.571,492.715h-1.625v-1.984h1.625V492.715z"/>
		<path fill="#7C8D9B" d="M577.092,492.715h-1.264V480.98h1.264v5.235h3.558v-5.235h1.264v11.734h-1.264v-5.416h-3.558V492.715z"/>
		<path fill="#7C8D9B" d="M589.133,480.979v1.084h-2.347v10.651h-1.264v-10.651h-2.348v-1.084H589.133z"/>
		<path fill="#7C8D9B" d="M591.66,492.715h-1.264V480.98h1.896l2.057,7.743l2.077-7.743h1.896v11.734h-1.265v-9.713l-2.111,7.908
			h-1.174l-2.112-7.908V492.715L591.66,492.715z"/>
		<path fill="#7C8D9B" d="M600.85,492.715V480.98h1.265v10.651h3.303v1.083H600.85L600.85,492.715z"/>
	</g>
</g>
<g>
	<path fill="#7C8D9B" d="M86.773,409.508H28.746V330.85h37.662l20.365,20.365V409.508z M30.036,408.219h55.448v-56.471
		l-19.609-19.609H30.036V408.219z"/>
	<path fill="#7C8D9B" d="M86.773,409.508H28.746V330.85h37.395v20.632h20.632V409.508z M30.036,408.219h55.448v-55.447H64.852
		v-20.633H30.036V408.219z"/>
	<g>
		<path fill="#7C8D9B" d="M49.404,400.451h-1.625v-1.986h1.625V400.451z"/>
		<path fill="#7C8D9B" d="M52.924,400.451H51.66v-11.736h1.896l2.058,7.745l2.077-7.745h1.895v11.736h-1.264v-9.713l-2.112,7.909
			h-1.173l-2.113-7.909V400.451z"/>
		<path fill="#7C8D9B" d="M65.019,400.451h-2.906v-11.736h2.906c0.938,0,1.652,0.225,2.14,0.669c0.488,0.444,0.731,1.065,0.731,1.86
			v6.679c0,0.806-0.241,1.43-0.722,1.869C66.686,400.23,65.969,400.451,65.019,400.451z M66.625,397.923v-6.679
			c0-0.385-0.142-0.723-0.425-1.012c-0.282-0.288-0.677-0.433-1.182-0.433h-1.643v9.567h1.643c0.505,0,0.9-0.144,1.182-0.424
			C66.484,398.661,66.625,398.321,66.625,397.923z"/>
	</g>
</g>
<g>
	<path fill="#7C8D9B" d="M952.51,130.484h-58.026V51.826h37.661l20.365,20.365V130.484z M895.771,129.195h55.448v-56.47
		l-19.608-19.609h-35.84V129.195z"/>
	<path fill="#7C8D9B" d="M952.51,130.484h-58.026V51.826h37.396v20.632h20.632L952.51,130.484L952.51,130.484z M895.771,129.195
		h55.448V73.748h-20.633V53.115h-34.815V129.195z"/>
	<g>
		<path fill="#7C8D9B" d="M915.141,121.428h-1.625v-1.986h1.625V121.428z"/>
		<path fill="#7C8D9B" d="M918.66,121.428h-1.264v-11.737h1.896l2.058,7.745l2.077-7.745h1.896v11.736h-1.264v-9.713l-2.111,7.908
			h-1.174l-2.113-7.908V121.428L918.66,121.428z"/>
		<path fill="#7C8D9B" d="M930.756,121.428h-2.906v-11.737h2.906c0.938,0,1.652,0.225,2.139,0.669
			c0.488,0.444,0.731,1.065,0.731,1.86v6.679c0,0.806-0.241,1.43-0.722,1.869C932.423,121.207,931.706,121.428,930.756,121.428z
			 M932.362,118.899v-6.679c0-0.385-0.143-0.723-0.425-1.012c-0.282-0.288-0.678-0.433-1.183-0.433h-1.643v9.567h1.643
			c0.505,0,0.899-0.143,1.183-0.424C932.221,119.638,932.362,119.298,932.362,118.899z"/>
	</g>
</g>
<g>
	<path fill="#7C8D9B" d="M391.53,230.813h-58.027v-78.659h37.662l20.365,20.365V230.813L391.53,230.813z M334.792,229.524h55.448
		v-56.471l-19.609-19.609h-35.839V229.524z"/>
	<path fill="#7C8D9B" d="M391.53,230.813h-58.027v-78.659h37.396v20.632h20.632V230.813L391.53,230.813z M334.792,229.524h55.448
		v-55.448h-20.632v-20.632h-34.816V229.524z"/>
	<path fill="#7C8D9B" d="M346.724,221.756h-1.625v-1.985h1.625V221.756z"/>
	<path fill="#7C8D9B" d="M350.089,210.021h3.611v9.658c0,0.771-0.217,1.355-0.65,1.752c-0.433,0.397-1.035,0.596-1.806,0.596
		s-1.366-0.199-1.787-0.596c-0.421-0.396-0.632-0.98-0.632-1.752v-1.174h1.264v1.247c0,0.794,0.385,1.191,1.155,1.191
		c0.794,0,1.191-0.397,1.191-1.191v-8.647h-2.347V210.021z"/>
	<path fill="#7C8D9B" d="M361.787,219.499c0,1.686-1.019,2.527-3.051,2.527c-2.033,0-3.052-0.842-3.052-2.527v-1.535h1.265v1.607
		c0,0.433,0.149,0.771,0.451,1.011c0.3,0.241,0.746,0.361,1.335,0.361c0.59,0,1.034-0.12,1.336-0.361
		c0.301-0.24,0.452-0.568,0.452-0.983c0-0.416-0.046-0.746-0.136-0.992c-0.091-0.247-0.273-0.509-0.551-0.786l-3.177-3.105
		c-0.374-0.372-0.629-0.737-0.769-1.093c-0.138-0.354-0.208-0.803-0.208-1.345c0-0.806,0.25-1.429,0.75-1.868
		s1.254-0.658,2.267-0.658c1.937,0,2.905,0.842,2.905,2.526v1.534h-1.264v-1.605c0-0.434-0.142-0.77-0.424-1.012
		c-0.283-0.239-0.707-0.36-1.272-0.36s-0.99,0.121-1.271,0.36c-0.283,0.242-0.424,0.572-0.424,0.993
		c0,0.423,0.042,0.752,0.126,0.994c0.083,0.239,0.271,0.493,0.559,0.758l3.232,3.105c0.349,0.386,0.589,0.754,0.722,1.109
		C361.721,218.509,361.787,218.958,361.787,219.499z"/>
	<path fill="#7C8D9B" d="M369.82,212.277v7.222c0,0.807-0.256,1.43-0.768,1.869c-0.512,0.439-1.275,0.658-2.292,0.658
		c-1.018,0-1.784-0.219-2.302-0.658s-0.776-1.062-0.776-1.869v-7.222c0-0.806,0.257-1.429,0.769-1.868
		c0.511-0.439,1.275-0.658,2.292-0.658s1.785,0.219,2.302,0.658C369.561,210.849,369.82,211.472,369.82,212.277z M368.557,219.499
		v-7.222c0-0.962-0.602-1.443-1.806-1.443c-1.203,0-1.805,0.481-1.805,1.443v7.222c0,0.963,0.602,1.444,1.805,1.444
		C367.955,220.943,368.557,220.462,368.557,219.499z"/>
	<path fill="#7C8D9B" d="M373.341,221.756h-1.264v-11.735h1.264l3.917,9.026v-9.026h1.264v11.735h-1.264l-3.917-9.026V221.756z"/>
</g>
<g>
	<path fill="#7C8D9B" d="M742.718,83.631h-58.025V4.973h37.661l20.364,20.364V83.631z M685.98,82.342h55.447V25.871L721.819,6.262
		H685.98V82.342z"/>
	<path fill="#7C8D9B" d="M742.718,83.631h-58.025V4.973h37.396v20.631h20.631L742.718,83.631L742.718,83.631z M685.98,82.342h55.447
		V26.894h-20.632V6.262H685.98V82.342z"/>
	<path fill="#7C8D9B" d="M697.912,74.573h-1.625v-1.985h1.625V74.573z"/>
	<path fill="#7C8D9B" d="M701.278,62.838h3.609v9.658c0,0.771-0.217,1.355-0.648,1.752c-0.435,0.396-1.035,0.596-1.808,0.596
		c-0.77,0-1.364-0.199-1.787-0.596c-0.42-0.396-0.631-0.98-0.631-1.752v-1.174h1.265v1.247c0,0.794,0.385,1.191,1.153,1.191
		c0.795,0,1.192-0.397,1.192-1.191v-8.647h-2.347L701.278,62.838L701.278,62.838z"/>
	<path fill="#7C8D9B" d="M712.976,72.316c0,1.686-1.018,2.527-3.051,2.527c-2.034,0-3.051-0.842-3.051-2.527v-1.535h1.264v1.607
		c0,0.433,0.15,0.771,0.451,1.011c0.301,0.241,0.746,0.361,1.336,0.361s1.035-0.12,1.336-0.361c0.301-0.24,0.451-0.568,0.451-0.983
		c0-0.416-0.045-0.746-0.135-0.992c-0.092-0.247-0.274-0.509-0.552-0.786l-3.178-3.105c-0.373-0.372-0.629-0.737-0.768-1.093
		c-0.139-0.354-0.207-0.803-0.207-1.345c0-0.806,0.249-1.429,0.749-1.868c0.499-0.439,1.255-0.658,2.266-0.658
		c1.938,0,2.906,0.842,2.906,2.526v1.534h-1.264v-1.605c0-0.434-0.143-0.77-0.425-1.012c-0.282-0.239-0.707-0.36-1.271-0.36
		c-0.566,0-0.991,0.121-1.273,0.36c-0.282,0.242-0.424,0.572-0.424,0.993c0,0.423,0.042,0.752,0.127,0.994
		c0.083,0.239,0.271,0.493,0.56,0.758l3.231,3.105c0.349,0.386,0.589,0.754,0.723,1.109
		C712.909,71.326,712.976,71.775,712.976,72.316z"/>
	<path fill="#7C8D9B" d="M721.009,65.095v7.222c0,0.807-0.256,1.43-0.768,1.869c-0.513,0.439-1.275,0.658-2.292,0.658
		c-1.019,0-1.784-0.219-2.303-0.658c-0.518-0.439-0.776-1.062-0.776-1.869v-7.222c0-0.806,0.256-1.429,0.768-1.868
		c0.513-0.439,1.276-0.658,2.293-0.658c1.019,0,1.785,0.219,2.304,0.658C720.749,63.666,721.009,64.289,721.009,65.095z
		 M719.745,72.316v-7.222c0-0.962-0.603-1.443-1.806-1.443s-1.806,0.481-1.806,1.443v7.222c0,0.963,0.603,1.444,1.806,1.444
		C719.144,73.761,719.745,73.279,719.745,72.316z"/>
	<path fill="#7C8D9B" d="M724.529,74.573h-1.265V62.838h1.265l3.917,9.026v-9.026h1.264v11.735h-1.264l-3.917-9.026V74.573z"/>
</g>
<g>
	<path fill="#7C8D9B" d="M1019.508,553.029h-58.025v-78.658h37.662l20.363,20.364V553.029z M962.771,551.74h55.447V495.27
		l-19.608-19.608h-35.839V551.74z"/>
	<path fill="#7C8D9B" d="M1019.508,553.029h-58.025v-78.658h37.396v20.631h20.631L1019.508,553.029L1019.508,553.029z
		 M962.771,551.74h55.447v-55.448h-20.632V475.66h-34.815V551.74z"/>
	<path fill="#7C8D9B" d="M974.702,543.972h-1.625v-1.984h1.625V543.972z"/>
	<path fill="#7C8D9B" d="M978.068,532.236h3.609v9.658c0,0.771-0.217,1.354-0.648,1.752c-0.435,0.396-1.035,0.596-1.808,0.596
		c-0.77,0-1.364-0.199-1.786-0.596c-0.421-0.396-0.632-0.98-0.632-1.752v-1.175h1.265v1.247c0,0.794,0.385,1.191,1.153,1.191
		c0.795,0,1.192-0.397,1.192-1.191v-8.646h-2.347L978.068,532.236L978.068,532.236z"/>
	<path fill="#7C8D9B" d="M989.766,541.715c0,1.687-1.018,2.527-3.051,2.527c-2.034,0-3.051-0.842-3.051-2.527v-1.535h1.264v1.607
		c0,0.433,0.15,0.771,0.451,1.011c0.301,0.241,0.746,0.361,1.336,0.361s1.035-0.12,1.336-0.361c0.301-0.24,0.451-0.567,0.451-0.982
		c0-0.416-0.045-0.746-0.135-0.992c-0.092-0.247-0.274-0.509-0.551-0.786l-3.179-3.105c-0.373-0.371-0.629-0.736-0.768-1.093
		c-0.138-0.354-0.207-0.803-0.207-1.345c0-0.806,0.249-1.429,0.749-1.868c0.499-0.438,1.255-0.658,2.266-0.658
		c1.938,0,2.906,0.843,2.906,2.526v1.534h-1.264v-1.605c0-0.434-0.143-0.77-0.426-1.012c-0.281-0.239-0.707-0.36-1.271-0.36
		c-0.566,0-0.991,0.121-1.273,0.36c-0.282,0.242-0.424,0.572-0.424,0.993c0,0.423,0.042,0.752,0.127,0.994
		c0.083,0.238,0.271,0.492,0.56,0.758l3.231,3.104c0.349,0.387,0.589,0.754,0.722,1.109
		C989.699,540.725,989.766,541.174,989.766,541.715z"/>
	<path fill="#7C8D9B" d="M997.799,534.493v7.222c0,0.807-0.256,1.43-0.768,1.869s-1.275,0.658-2.292,0.658
		c-1.019,0-1.784-0.219-2.302-0.658c-0.519-0.439-0.777-1.062-0.777-1.869v-7.222c0-0.807,0.256-1.429,0.768-1.868
		c0.513-0.439,1.276-0.658,2.293-0.658c1.019,0,1.785,0.219,2.304,0.658C997.539,533.064,997.799,533.688,997.799,534.493z
		 M996.535,541.715v-7.222c0-0.962-0.603-1.443-1.807-1.443c-1.203,0-1.805,0.481-1.805,1.443v7.222
		c0,0.963,0.602,1.444,1.805,1.444C995.934,543.159,996.535,542.678,996.535,541.715z"/>
	<path fill="#7C8D9B" d="M1001.319,543.972h-1.265v-11.734h1.265l3.917,9.025v-9.025h1.264v11.734h-1.264l-3.917-9.025V543.972z"/>
</g>
<g>
	<path fill="#7C8D9B" d="M924.798,362.486h-58.026v-78.659h37.662l20.364,20.364V362.486z M868.062,361.197h55.446v-56.471
		L903.9,285.117h-35.84v76.08H868.062z"/>
	<path fill="#7C8D9B" d="M924.798,362.486h-58.026v-78.659h37.396v20.632h20.631L924.798,362.486L924.798,362.486z M868.062,361.197
		h55.446v-55.449h-20.632v-20.631h-34.814V361.197z"/>
	<g>
		<path fill="#7C8D9B" d="M885.102,353.428h-1.625v-1.985h1.625V353.428z"/>
		<path fill="#7C8D9B" d="M890.245,353.428h-1.263v-4.207l-2.979-7.527h1.336l2.274,6.048l2.274-6.048h1.336l-2.979,7.547V353.428z"
			/>
		<path fill="#7C8D9B" d="M895.66,353.428h-1.264v-11.734h1.896l2.058,7.744l2.076-7.744h1.896v11.734h-1.265v-9.713l-2.111,7.908
			h-1.173l-2.113-7.908V353.428L895.66,353.428z"/>
		<path fill="#7C8D9B" d="M904.85,353.428v-11.734h1.265v10.651h3.304v1.083H904.85z"/>
	</g>
</g>
<g>
	<path fill="#7C8D9B" d="M406.165,426.508h-58.026v-78.659h37.662l20.364,20.364V426.508z M349.429,425.219h55.447v-56.471
		l-19.608-19.609h-35.839V425.219z"/>
	<path fill="#7C8D9B" d="M406.165,426.508h-58.026v-78.659h37.396v20.632h20.631L406.165,426.508L406.165,426.508z M349.429,425.219
		h55.447V369.77h-20.632v-20.631h-34.815V425.219z"/>
	<g>
		<path fill="#7C8D9B" d="M366.468,417.449h-1.625v-1.985h1.625V417.449z"/>
		<path fill="#7C8D9B" d="M371.612,417.449h-1.264v-4.207l-2.979-7.527h1.336l2.274,6.048l2.274-6.048h1.336l-2.979,7.547V417.449
			L371.612,417.449z"/>
		<path fill="#7C8D9B" d="M377.027,417.449h-1.265v-11.734h1.896l2.058,7.744l2.076-7.744h1.896v11.734h-1.265v-9.713l-2.112,7.907
			h-1.173l-2.112-7.907V417.449z"/>
		<path fill="#7C8D9B" d="M386.217,417.449v-11.734h1.265v10.651h3.304v1.083H386.217z"/>
	</g>
</g>
<g>
	<path fill="#7C8D9B" d="M234.653,625.771h-58.027v-78.658h37.662l20.365,20.363V625.771z M177.916,624.483h55.448v-56.472
		l-19.609-19.608h-35.838L177.916,624.483L177.916,624.483z"/>
	<path fill="#7C8D9B" d="M234.653,625.771h-58.027v-78.658h37.395v20.632h20.632V625.771z M177.916,624.483h55.448v-55.449h-20.631
		v-20.631h-34.816L177.916,624.483L177.916,624.483z"/>
	<g>
		<path fill="#7C8D9B" d="M191.19,616.714h-1.625v-1.985h1.625V616.714z"/>
		<path fill="#7C8D9B" d="M194.711,616.714h-1.264V604.98h1.264v5.234h3.557v-5.234h1.264v11.733h-1.264v-5.416h-3.557V616.714z"/>
		<path fill="#7C8D9B" d="M206.752,604.979v1.084h-2.347v10.65h-1.264v-10.65h-2.347v-1.084H206.752z"/>
		<path fill="#7C8D9B" d="M209.279,616.714h-1.264V604.98h1.896l2.058,7.743l2.077-7.743h1.895v11.733h-1.264v-9.713l-2.112,7.908
			h-1.174l-2.112-7.908V616.714z"/>
		<path fill="#7C8D9B" d="M218.468,616.714V604.98h1.264v10.65h3.304v1.083H218.468z"/>
	</g>
</g>
<g>
	<path fill="#7C8D9B" d="M815.68,1086.329h-58.025v-78.658h37.662l20.363,20.364V1086.329z M758.943,1085.04h55.446v-56.471
		l-19.608-19.609h-35.838V1085.04z"/>
	<path fill="#7C8D9B" d="M815.68,1086.329h-58.025v-78.658h37.396v20.631h20.631L815.68,1086.329L815.68,1086.329z M758.943,1085.04
		h55.446v-55.448h-20.63v-20.632h-34.815L758.943,1085.04L758.943,1085.04z"/>
	<g>
		<path fill="#7C8D9B" d="M772.218,1077.271h-1.625v-1.985h1.625V1077.271z"/>
		<path fill="#7C8D9B" d="M775.738,1077.271h-1.265v-11.735h1.265v5.235h3.557v-5.235h1.264v11.735h-1.264v-5.416h-3.557V1077.271z"
			/>
		<path fill="#7C8D9B" d="M787.779,1065.536v1.084h-2.348v10.651h-1.264v-10.651h-2.347v-1.084H787.779z"/>
		<path fill="#7C8D9B" d="M790.307,1077.271h-1.264v-11.735h1.896l2.057,7.744l2.077-7.744h1.896v11.735h-1.264v-9.714l-2.112,7.908
			h-1.174l-2.112-7.908V1077.271L790.307,1077.271z"/>
		<path fill="#7C8D9B" d="M799.496,1077.271v-11.735h1.264v10.651h3.303v1.084H799.496z"/>
	</g>
</g>
<g>
	<path fill="#7C8D9B" d="M581.745,1193.109h-58.026v-78.658h37.661l20.365,20.365V1193.109z M525.008,1191.82h55.448v-56.471
		l-19.608-19.609h-35.84V1191.82z"/>
	<path fill="#7C8D9B" d="M581.745,1193.109h-58.026v-78.658h37.395v20.633h20.632V1193.109z M525.008,1191.82h55.448v-55.447
		h-20.632v-20.633h-34.816V1191.82z"/>
	<g>
		<path fill="#7C8D9B" d="M544.376,1184.053h-1.625v-1.986h1.625V1184.053z"/>
		<path fill="#7C8D9B" d="M547.896,1184.053h-1.265v-11.736h1.896l2.059,7.745l2.077-7.745h1.896v11.736h-1.265v-9.713l-2.112,7.907
			h-1.173l-2.112-7.907V1184.053z"/>
		<path fill="#7C8D9B" d="M559.991,1184.053h-2.906v-11.736h2.906c0.938,0,1.651,0.225,2.14,0.669s0.73,1.065,0.73,1.86v6.679
			c0,0.806-0.24,1.43-0.721,1.869C561.658,1183.832,560.941,1184.053,559.991,1184.053z M561.598,1181.524v-6.679
			c0-0.385-0.142-0.724-0.425-1.012c-0.282-0.288-0.677-0.434-1.182-0.434h-1.644v9.567h1.644c0.505,0,0.899-0.144,1.182-0.424
			C561.456,1182.263,561.598,1181.923,561.598,1181.524z"/>
	</g>
</g>
<g>
	<path fill="#7C8D9B" d="M852.631,678.502h-58.027v-78.658h37.662l20.365,20.365V678.502z M795.895,677.213h55.447v-56.471
		l-19.609-19.609h-35.838V677.213z"/>
	<path fill="#7C8D9B" d="M852.631,678.502h-58.027v-78.658H832v20.632h20.632L852.631,678.502L852.631,678.502z M795.895,677.213
		h55.447v-55.447h-20.633v-20.633h-34.814V677.213z"/>
	<g>
		<path fill="#7C8D9B" d="M815.262,669.445h-1.625v-1.986h1.625V669.445z"/>
		<path fill="#7C8D9B" d="M818.781,669.445h-1.264v-11.736h1.896l2.058,7.745l2.077-7.745h1.896v11.736h-1.265v-9.713l-2.11,7.907
			h-1.174l-2.113-7.907V669.445z"/>
		<path fill="#7C8D9B" d="M830.877,669.445h-2.906v-11.736h2.906c0.938,0,1.652,0.225,2.139,0.669
			c0.488,0.444,0.731,1.065,0.731,1.86v6.679c0,0.806-0.241,1.43-0.722,1.869C832.544,669.225,831.827,669.445,830.877,669.445z
			 M832.482,666.917v-6.679c0-0.386-0.142-0.724-0.425-1.013c-0.281-0.288-0.677-0.433-1.182-0.433h-1.644v9.567h1.644
			c0.505,0,0.899-0.144,1.182-0.425C832.342,667.655,832.482,667.315,832.482,666.917z"/>
	</g>
</g>
<g>
	<path fill="#7C8D9B" d="M345.454,811.781h-58.027v-78.658h37.662l20.365,20.364V811.781z M288.716,810.492h55.448v-56.471
		l-19.609-19.609h-35.839V810.492z"/>
	<path fill="#7C8D9B" d="M345.454,811.781h-58.027v-78.658h37.396v20.632h20.632V811.781z M288.716,810.492h55.448v-55.448h-20.632
		v-20.632h-34.816V810.492z"/>
	<path fill="#7C8D9B" d="M300.648,802.724h-1.625v-1.984h1.625V802.724z"/>
	<path fill="#7C8D9B" d="M304.014,790.988h3.611v9.658c0,0.771-0.217,1.354-0.65,1.752c-0.433,0.396-1.035,0.596-1.806,0.596
		c-0.77,0-1.366-0.199-1.787-0.596s-0.632-0.98-0.632-1.752v-1.175h1.264v1.247c0,0.794,0.385,1.191,1.155,1.191
		c0.794,0,1.192-0.397,1.192-1.191v-8.646h-2.347V790.988z"/>
	<path fill="#7C8D9B" d="M315.711,800.467c0,1.687-1.018,2.527-3.051,2.527s-3.051-0.842-3.051-2.527v-1.535h1.264v1.607
		c0,0.433,0.15,0.771,0.451,1.011c0.3,0.241,0.746,0.361,1.335,0.361c0.59,0,1.035-0.12,1.336-0.361
		c0.301-0.24,0.452-0.567,0.452-0.982c0-0.416-0.045-0.746-0.135-0.992c-0.092-0.247-0.274-0.509-0.552-0.786l-3.177-3.105
		c-0.374-0.371-0.629-0.736-0.768-1.093c-0.139-0.354-0.208-0.803-0.208-1.345c0-0.806,0.25-1.429,0.75-1.868
		c0.5-0.438,1.254-0.658,2.266-0.658c1.937,0,2.906,0.843,2.906,2.526v1.534h-1.265v-1.605c0-0.434-0.142-0.77-0.424-1.012
		c-0.283-0.239-0.707-0.36-1.271-0.36c-0.566,0-0.991,0.121-1.272,0.36c-0.283,0.242-0.424,0.572-0.424,0.993
		c0,0.423,0.042,0.752,0.126,0.994c0.083,0.238,0.271,0.492,0.559,0.758l3.232,3.104c0.349,0.387,0.589,0.754,0.722,1.109
		C315.646,799.477,315.711,799.926,315.711,800.467z"/>
	<path fill="#7C8D9B" d="M323.745,793.245v7.222c0,0.808-0.256,1.43-0.767,1.869c-0.513,0.439-1.276,0.658-2.293,0.658
		c-1.018,0-1.783-0.219-2.302-0.658c-0.518-0.439-0.775-1.062-0.775-1.869v-7.222c0-0.806,0.256-1.429,0.768-1.868
		c0.511-0.439,1.276-0.658,2.292-0.658c1.017,0,1.785,0.219,2.302,0.658C323.485,791.816,323.745,792.439,323.745,793.245z
		 M322.48,800.467v-7.222c0-0.962-0.602-1.443-1.806-1.443c-1.203,0-1.805,0.481-1.805,1.443v7.222c0,0.963,0.602,1.444,1.805,1.444
		C321.879,801.911,322.48,801.43,322.48,800.467z"/>
	<path fill="#7C8D9B" d="M327.265,802.724h-1.264v-11.734h1.264l3.917,9.025v-9.025h1.265v11.734h-1.265l-3.917-9.025V802.724z"/>
</g>
<g>
	<path fill="#7C8D9B" d="M486.727,673.609H428.7v-78.658h37.662l20.363,20.364L486.727,673.609L486.727,673.609z M429.989,672.32
		h55.448V615.85l-19.609-19.608h-35.839V672.32z"/>
	<path fill="#7C8D9B" d="M486.727,673.609H428.7v-78.658h37.396v20.631h20.631V673.609L486.727,673.609z M429.989,672.32h55.448
		v-55.448h-20.633V596.24h-34.815V672.32z"/>
	<path fill="#7C8D9B" d="M441.921,664.552h-1.625v-1.984h1.625V664.552z"/>
	<path fill="#7C8D9B" d="M445.287,652.816h3.609v9.657c0,0.771-0.217,1.355-0.648,1.752c-0.434,0.396-1.035,0.597-1.807,0.597
		c-0.771,0-1.365-0.199-1.787-0.597c-0.42-0.396-0.631-0.979-0.631-1.752V661.3h1.264v1.247c0,0.794,0.385,1.191,1.154,1.191
		c0.795,0,1.191-0.397,1.191-1.191V653.9h-2.347L445.287,652.816L445.287,652.816z"/>
	<path fill="#7C8D9B" d="M456.984,662.295c0,1.686-1.019,2.527-3.052,2.527s-3.051-0.842-3.051-2.527v-1.535h1.265v1.607
		c0,0.433,0.149,0.771,0.45,1.011c0.302,0.241,0.746,0.361,1.336,0.361c0.591,0,1.035-0.12,1.337-0.361
		c0.301-0.24,0.45-0.568,0.45-0.983c0-0.416-0.045-0.745-0.135-0.991c-0.092-0.247-0.274-0.509-0.551-0.786l-3.179-3.105
		c-0.372-0.372-0.629-0.736-0.768-1.093c-0.138-0.354-0.207-0.803-0.207-1.345c0-0.807,0.249-1.43,0.749-1.868
		c0.499-0.439,1.255-0.658,2.267-0.658c1.937,0,2.905,0.842,2.905,2.526v1.534h-1.264v-1.605c0-0.434-0.142-0.77-0.425-1.012
		c-0.282-0.239-0.707-0.36-1.271-0.36c-0.565,0-0.991,0.121-1.272,0.36c-0.283,0.242-0.425,0.572-0.425,0.993
		c0,0.423,0.042,0.752,0.127,0.994c0.084,0.238,0.271,0.492,0.56,0.758l3.231,3.104c0.349,0.386,0.59,0.754,0.723,1.109
		C456.918,661.305,456.984,661.754,456.984,662.295z"/>
	<path fill="#7C8D9B" d="M465.018,655.073v7.222c0,0.807-0.256,1.43-0.768,1.869s-1.275,0.658-2.292,0.658
		c-1.018,0-1.784-0.219-2.302-0.658c-0.519-0.439-0.777-1.062-0.777-1.869v-7.222c0-0.807,0.256-1.43,0.768-1.868
		c0.513-0.439,1.276-0.658,2.294-0.658s1.784,0.219,2.303,0.658C464.758,653.645,465.018,654.268,465.018,655.073z M463.754,662.295
		v-7.222c0-0.962-0.602-1.443-1.806-1.443c-1.203,0-1.806,0.481-1.806,1.443v7.222c0,0.963,0.603,1.444,1.806,1.444
		C463.152,663.739,463.754,663.258,463.754,662.295z"/>
	<path fill="#7C8D9B" d="M468.538,664.552h-1.264v-11.734h1.264l3.917,9.025v-9.025h1.264v11.734h-1.264l-3.917-9.025V664.552z"/>
</g>
<g>
	<path fill="#7C8D9B" d="M1024.471,1128.089h-58.025v-78.658h37.662l20.363,20.364V1128.089z M967.732,1126.8h55.448v-56.471
		l-19.608-19.609h-35.84V1126.8z"/>
	<path fill="#7C8D9B" d="M1024.471,1128.089h-58.025v-78.658h37.396v20.632h20.631L1024.471,1128.089L1024.471,1128.089z
		 M967.732,1126.8h55.448v-55.448h-20.631v-20.632h-34.815v76.08H967.732z"/>
	<path fill="#7C8D9B" d="M979.665,1119.031h-1.625v-1.985h1.625V1119.031z"/>
	<path fill="#7C8D9B" d="M983.031,1107.296h3.609v9.658c0,0.771-0.217,1.354-0.648,1.752c-0.435,0.396-1.035,0.596-1.807,0.596
		c-0.771,0-1.365-0.199-1.787-0.596c-0.42-0.396-0.631-0.98-0.631-1.752v-1.174h1.264v1.247c0,0.794,0.385,1.19,1.154,1.19
		c0.795,0,1.191-0.396,1.191-1.19v-8.647h-2.347L983.031,1107.296L983.031,1107.296z"/>
	<path fill="#7C8D9B" d="M994.729,1116.774c0,1.686-1.018,2.526-3.051,2.526s-3.051-0.842-3.051-2.526v-1.535h1.264v1.606
		c0,0.434,0.15,0.771,0.451,1.012s0.746,0.36,1.336,0.36s1.035-0.12,1.336-0.36s0.451-0.568,0.451-0.983
		c0-0.416-0.045-0.746-0.135-0.992c-0.092-0.247-0.274-0.509-0.551-0.786l-3.179-3.104c-0.373-0.372-0.629-0.737-0.768-1.093
		c-0.138-0.354-0.207-0.804-0.207-1.346c0-0.806,0.249-1.429,0.749-1.867c0.499-0.439,1.255-0.658,2.266-0.658
		c1.938,0,2.906,0.842,2.906,2.525v1.534h-1.264v-1.604c0-0.435-0.143-0.771-0.426-1.012c-0.281-0.239-0.706-0.36-1.271-0.36
		c-0.565,0-0.991,0.121-1.272,0.36c-0.283,0.241-0.425,0.571-0.425,0.992c0,0.424,0.042,0.752,0.127,0.994
		c0.083,0.239,0.271,0.493,0.56,0.758l3.231,3.105c0.349,0.386,0.589,0.754,0.723,1.109
		C994.662,1115.784,994.729,1116.233,994.729,1116.774z"/>
	<path fill="#7C8D9B" d="M1002.762,1109.553v7.223c0,0.807-0.256,1.43-0.768,1.869c-0.512,0.438-1.275,0.657-2.292,0.657
		c-1.019,0-1.784-0.219-2.302-0.657c-0.519-0.439-0.777-1.062-0.777-1.869v-7.223c0-0.806,0.256-1.429,0.768-1.868
		c0.513-0.438,1.276-0.657,2.293-0.657c1.019,0,1.785,0.219,2.304,0.657C1002.502,1108.124,1002.762,1108.747,1002.762,1109.553z
		 M1001.498,1116.774v-7.223c0-0.962-0.602-1.442-1.807-1.442c-1.202,0-1.805,0.48-1.805,1.442v7.223
		c0,0.963,0.603,1.443,1.805,1.443C1000.896,1118.219,1001.498,1117.737,1001.498,1116.774z"/>
	<path fill="#7C8D9B" d="M1006.282,1119.031h-1.265v-11.735h1.265l3.917,9.026v-9.026h1.264v11.735h-1.264l-3.917-9.026V1119.031z"
		/>
</g>
<g>
	<path fill="#7C8D9B" d="M1073.715,883.837h-58.025v-78.659h37.661l20.364,20.365V883.837z M1016.979,882.548h55.447v-56.471
		l-19.608-19.609h-35.839V882.548z"/>
	<path fill="#7C8D9B" d="M1073.715,883.837h-58.025v-78.659h37.395v20.633h20.632L1073.715,883.837L1073.715,883.837z
		 M1016.979,882.548h55.447V827.1h-20.632v-20.632h-34.815V882.548z"/>
	<path fill="#7C8D9B" d="M1036.646,874.779h-1.625v-1.986h1.625V874.779z"/>
	<path fill="#7C8D9B" d="M1040.012,863.044h3.61v9.659c0,0.77-0.216,1.354-0.649,1.751c-0.434,0.396-1.035,0.596-1.806,0.596
		s-1.366-0.198-1.787-0.596c-0.421-0.396-0.632-0.981-0.632-1.751v-1.174h1.264v1.246c0,0.793,0.387,1.19,1.155,1.19
		c0.794,0,1.192-0.397,1.192-1.19v-8.646h-2.349L1040.012,863.044L1040.012,863.044z"/>
	<path fill="#7C8D9B" d="M1051.709,872.521c0,1.686-1.018,2.527-3.051,2.527s-3.051-0.843-3.051-2.527v-1.534h1.264v1.605
		c0,0.435,0.149,0.771,0.452,1.013c0.3,0.239,0.745,0.36,1.335,0.36s1.035-0.121,1.336-0.36c0.301-0.24,0.452-0.568,0.452-0.983
		s-0.046-0.745-0.137-0.993c-0.091-0.246-0.273-0.508-0.552-0.785l-3.176-3.104c-0.374-0.373-0.63-0.737-0.77-1.093
		c-0.138-0.354-0.206-0.805-0.206-1.346c0-0.807,0.249-1.428,0.748-1.866c0.5-0.439,1.255-0.659,2.268-0.659
		c1.937,0,2.905,0.841,2.905,2.525v1.535h-1.265v-1.604c0-0.437-0.141-0.771-0.424-1.015c-0.283-0.237-0.707-0.358-1.272-0.358
		s-0.989,0.121-1.271,0.358c-0.284,0.242-0.425,0.572-0.425,0.994s0.042,0.752,0.127,0.994c0.084,0.238,0.27,0.494,0.56,0.758
		l3.231,3.105c0.349,0.385,0.589,0.754,0.723,1.108C1051.643,871.533,1051.709,871.98,1051.709,872.521z"/>
</g>
<g>
	<path fill="#7C8D9B" d="M280.713,1171.6h-58.025v-78.659h37.661l20.364,20.365V1171.6z M223.977,1170.311h55.447v-56.471
		l-19.608-19.609h-35.839V1170.311z"/>
	<path fill="#7C8D9B" d="M280.713,1171.6h-58.025v-78.659h37.395v20.633h20.632L280.713,1171.6L280.713,1171.6z M223.977,1170.311
		h55.447v-55.448h-20.632v-20.632h-34.815V1170.311z"/>
	<path fill="#7C8D9B" d="M243.645,1162.542h-1.625v-1.986h1.625V1162.542z"/>
	<path fill="#7C8D9B" d="M247.01,1150.807h3.61v9.659c0,0.77-0.216,1.354-0.649,1.751c-0.434,0.396-1.035,0.596-1.806,0.596
		s-1.366-0.198-1.787-0.596c-0.421-0.396-0.632-0.981-0.632-1.751v-1.174h1.264v1.246c0,0.793,0.387,1.19,1.155,1.19
		c0.794,0,1.192-0.397,1.192-1.19v-8.646h-2.349L247.01,1150.807L247.01,1150.807z"/>
	<path fill="#7C8D9B" d="M258.708,1160.284c0,1.686-1.018,2.527-3.051,2.527s-3.051-0.843-3.051-2.527v-1.534h1.264v1.605
		c0,0.435,0.149,0.771,0.452,1.013c0.3,0.239,0.745,0.36,1.335,0.36s1.035-0.121,1.336-0.36c0.301-0.24,0.452-0.568,0.452-0.983
		s-0.046-0.745-0.137-0.993c-0.091-0.246-0.273-0.508-0.552-0.785l-3.176-3.104c-0.374-0.373-0.63-0.737-0.77-1.093
		c-0.138-0.354-0.206-0.805-0.206-1.346c0-0.807,0.249-1.428,0.748-1.866c0.5-0.439,1.255-0.659,2.268-0.659
		c1.937,0,2.905,0.841,2.905,2.525v1.535h-1.265v-1.604c0-0.437-0.141-0.771-0.424-1.015c-0.283-0.237-0.707-0.358-1.272-0.358
		s-0.989,0.121-1.271,0.358c-0.284,0.242-0.425,0.572-0.425,0.994s0.042,0.752,0.127,0.994c0.084,0.238,0.27,0.494,0.56,0.758
		l3.231,3.105c0.349,0.385,0.589,0.754,0.723,1.108C258.641,1159.296,258.708,1159.743,258.708,1160.284z"/>
</g>
<g>
	<path fill="#7C8D9B" d="M952.632,855.08h-58.026v-78.659h37.662l20.364,20.364V855.08z M895.896,853.791h55.446V797.32
		l-19.607-19.609h-35.839V853.791z"/>
	<path fill="#7C8D9B" d="M952.632,855.08h-58.026v-78.659h37.396v20.632h20.631L952.632,855.08L952.632,855.08z M895.896,853.791
		h55.446v-55.449h-20.632v-20.631h-34.814V853.791z"/>
	<g>
		<path fill="#7C8D9B" d="M912.936,846.021h-1.625v-1.985h1.625V846.021z"/>
		<path fill="#7C8D9B" d="M918.079,846.021h-1.263v-4.207l-2.979-7.527h1.336l2.274,6.048l2.274-6.048h1.336l-2.979,7.547V846.021z"
			/>
		<path fill="#7C8D9B" d="M923.494,846.021h-1.264v-11.734h1.896l2.058,7.744l2.076-7.744h1.896v11.734h-1.264v-9.714l-2.112,7.908
			h-1.173l-2.113-7.908V846.021L923.494,846.021z"/>
		<path fill="#7C8D9B" d="M932.684,846.021v-11.734h1.265v10.65h3.304v1.084H932.684z"/>
	</g>
</g>
<g>
	<path fill="#7C8D9B" d="M531.938,864.531h-58.026v-78.659h37.662l20.364,20.364V864.531z M475.201,863.242h55.447v-56.471
		l-19.608-19.609h-35.839V863.242L475.201,863.242z"/>
	<path fill="#7C8D9B" d="M531.938,864.531h-58.026v-78.659h37.396v20.632h20.631V864.531L531.938,864.531z M475.201,863.242h55.447
		v-55.449h-20.633v-20.631h-34.814V863.242L475.201,863.242z"/>
	<g>
		<path fill="#7C8D9B" d="M492.24,855.473h-1.625v-1.984h1.625V855.473z"/>
		<path fill="#7C8D9B" d="M497.384,855.473h-1.263v-4.207l-2.979-7.526h1.337l2.273,6.048l2.275-6.048h1.336l-2.979,7.547V855.473
			L497.384,855.473z"/>
		<path fill="#7C8D9B" d="M502.799,855.473h-1.264v-11.733h1.896l2.059,7.744l2.076-7.744h1.896v11.733h-1.264v-9.713l-2.112,7.908
			h-1.173l-2.113-7.908V855.473L502.799,855.473z"/>
		<path fill="#7C8D9B" d="M511.989,855.473v-11.733h1.264v10.65h3.304v1.083H511.989z"/>
	</g>
</g>
</svg>
