<?xml version="1.0" encoding="utf-8"?>
<!-- Generator: Adobe Illustrator 16.0.4, SVG Export Plug-In . SVG Version: 6.00 Build 0)  -->
<!DOCTYPE svg PUBLIC "-//W3C//DTD SVG 1.1//EN" "http://www.w3.org/Graphics/SVG/1.1/DTD/svg11.dtd">
<svg version="1.1" id="Layer_1" xmlns="http://www.w3.org/2000/svg" xmlns:xlink="http://www.w3.org/1999/xlink" x="0px" y="0px"
	 width="1100px" height="1200px" viewBox="0 0 1100 1200" enable-background="new 0 0 1100 1200" xml:space="preserve">
<g>
	<path fill="#7C8D9B" d="M907.768,349.533h-98.955v-134.14h64.229l34.729,34.729v99.411H907.768z M811.011,347.334h94.561v-96.302
		l-33.44-33.44h-61.118L811.011,347.334L811.011,347.334z"/>
	<path fill="#7C8D9B" d="M907.768,349.533h-98.955v-134.14h63.771v35.184h35.184V349.533z M811.011,347.334h94.561v-94.559h-35.187
		v-35.183h-59.374V347.334z"/>
	<path fill="#7C8D9B" d="M831.358,334.086h-2.771v-3.387h2.771V334.086z"/>
	<path fill="#7C8D9B" d="M837.098,314.073h6.157v16.472c0,1.314-0.369,2.311-1.105,2.987c-0.739,0.677-1.768,1.016-3.08,1.016
		s-2.328-0.339-3.048-1.016c-0.72-0.677-1.077-1.673-1.077-2.987v-2.001h2.153v2.126c0,1.353,0.657,2.031,1.972,2.031
		c1.354,0,2.031-0.679,2.031-2.031v-14.747h-4.003V314.073L837.098,314.073z"/>
	<path fill="#7C8D9B" d="M857.047,330.238c0,2.873-1.734,4.31-5.203,4.31s-5.203-1.437-5.203-4.31v-2.618h2.155v2.74
		c0,0.738,0.257,1.314,0.771,1.725c0.513,0.411,1.271,0.616,2.276,0.616s1.767-0.206,2.277-0.616
		c0.514-0.41,0.771-0.969,0.771-1.678c0-0.708-0.075-1.271-0.229-1.692c-0.154-0.421-0.467-0.867-0.939-1.34l-5.418-5.296
		c-0.637-0.635-1.07-1.258-1.309-1.863c-0.235-0.604-0.354-1.37-0.354-2.294c0-1.374,0.427-2.436,1.278-3.185
		c0.851-0.749,2.139-1.123,3.862-1.123c3.305,0,4.957,1.435,4.957,4.308v2.618h-2.154v-2.738c0-0.741-0.242-1.312-0.725-1.727
		c-0.481-0.408-1.205-0.614-2.171-0.614s-1.688,0.206-2.171,0.614c-0.48,0.412-0.724,0.975-0.724,1.694
		c0,0.719,0.071,1.282,0.216,1.694c0.145,0.408,0.462,0.842,0.953,1.293l5.512,5.296c0.598,0.657,1.008,1.286,1.232,1.892
		S857.047,329.314,857.047,330.238z"/>
	<path fill="#7C8D9B" d="M870.746,317.922v12.316c0,1.376-0.438,2.438-1.309,3.187c-0.873,0.749-2.178,1.123-3.91,1.123
		c-1.734,0-3.042-0.374-3.927-1.123c-0.883-0.749-1.322-1.811-1.322-3.187v-12.316c0-1.374,0.437-2.436,1.31-3.185
		c0.871-0.749,2.175-1.123,3.909-1.123c1.733,0,3.043,0.374,3.926,1.123C870.304,315.486,870.746,316.548,870.746,317.922z
		 M868.592,330.238v-12.316c0-1.641-1.027-2.461-3.08-2.461c-2.052,0-3.078,0.82-3.078,2.461v12.316
		c0,1.643,1.026,2.463,3.078,2.463C867.564,332.701,868.592,331.881,868.592,330.238z"/>
	<path fill="#7C8D9B" d="M876.75,334.086h-2.155v-20.013h2.155l6.681,15.394v-15.394h2.155v20.013h-2.155l-6.681-15.394V334.086z"/>
</g>
<g>
	<path fill="#7C8D9B" d="M655.883,175.258h-98.956V41.118h64.229l34.729,34.729L655.883,175.258L655.883,175.258z M559.126,173.059
		h94.558V76.757l-33.439-33.44h-61.117L559.126,173.059L559.126,173.059z"/>
	<path fill="#7C8D9B" d="M655.883,175.258h-98.956V41.118h63.771v35.184h35.185V175.258z M559.126,173.059h94.558V78.5H618.5V43.316
		h-59.374V173.059z"/>
	<path fill="#7C8D9B" d="M592.667,159.811h-2.771v-3.387h2.771V159.811z"/>
	<path fill="#7C8D9B" d="M598.407,139.798h6.157v16.472c0,1.314-0.369,2.312-1.107,2.987c-0.738,0.677-1.766,1.016-3.079,1.016
		c-1.312,0-2.33-0.339-3.048-1.016c-0.718-0.678-1.077-1.673-1.077-2.987v-2.001h2.154v2.126c0,1.354,0.658,2.031,1.971,2.031
		c1.354,0,2.034-0.679,2.034-2.031v-14.747h-4.005V139.798z"/>
	<path fill="#7C8D9B" d="M618.355,155.963c0,2.873-1.734,4.31-5.203,4.31s-5.201-1.437-5.201-4.31v-2.618h2.154v2.74
		c0,0.736,0.255,1.312,0.771,1.725c0.511,0.41,1.271,0.616,2.275,0.616s1.767-0.206,2.277-0.616c0.515-0.41,0.771-0.969,0.771-1.678
		c0-0.708-0.075-1.271-0.23-1.692c-0.154-0.421-0.468-0.866-0.939-1.34l-5.416-5.296c-0.638-0.635-1.072-1.258-1.312-1.863
		c-0.234-0.604-0.353-1.369-0.353-2.294c0-1.374,0.426-2.436,1.274-3.185c0.854-0.749,2.14-1.123,3.865-1.123
		c3.305,0,4.957,1.435,4.957,4.308v2.618h-2.156v-2.738c0-0.74-0.239-1.312-0.724-1.727c-0.483-0.408-1.205-0.614-2.171-0.614
		s-1.688,0.206-2.17,0.614c-0.482,0.412-0.725,0.975-0.725,1.694c0,0.719,0.07,1.282,0.218,1.693
		c0.143,0.408,0.459,0.843,0.953,1.293l5.511,5.296c0.596,0.657,1.006,1.286,1.231,1.894
		C618.242,154.274,618.355,155.038,618.355,155.963z"/>
</g>
<g>
	<path fill="#7C8D9B" d="M145.145,553.726H46.188V419.585h64.228l34.729,34.729V553.726z M48.388,551.526h94.558v-96.304
		l-33.439-33.438H48.388V551.526z"/>
	<path fill="#7C8D9B" d="M145.145,553.726H46.188V419.585h63.772v35.184h35.184L145.145,553.726L145.145,553.726z M48.388,551.526
		h94.558v-94.561h-35.183v-35.184H48.388V551.526z"/>
	<g>
		<path fill="#7C8D9B" d="M77.446,538.278h-2.771v-3.389h2.771V538.278z"/>
		<path fill="#7C8D9B" d="M86.22,538.278h-2.154v-7.175l-5.08-12.84h2.278l3.879,10.315l3.88-10.315H91.3l-5.08,12.87V538.278z"/>
		<path fill="#7C8D9B" d="M95.454,538.278H93.3v-20.015h3.232l3.51,13.208l3.541-13.208h3.232v20.015h-2.155v-16.563l-3.602,13.486
			h-2.001l-3.604-13.486L95.454,538.278L95.454,538.278z"/>
		<path fill="#7C8D9B" d="M111.125,538.278v-20.015h2.155v18.166h5.634v1.849H111.125L111.125,538.278z"/>
	</g>
</g>
<g>
	<path fill="#7C8D9B" d="M472.553,509.184h-98.957V375.043h64.229l34.729,34.729V509.184z M375.794,506.984h94.561v-96.303
		l-33.441-33.439h-61.117L375.794,506.984L375.794,506.984z"/>
	<path fill="#7C8D9B" d="M472.553,509.184h-98.957V375.043h63.771v35.186h35.186V509.184z M375.794,506.984h94.561v-94.559h-35.187
		V377.24h-59.374V506.984z"/>
	<g>
		<path fill="#7C8D9B" d="M398.433,493.736h-2.771v-3.387h2.771V493.736z"/>
		<path fill="#7C8D9B" d="M404.437,493.736h-2.155v-20.014h2.155v8.93h6.063v-8.93h2.155v20.014H410.5V484.5h-6.063V493.736z"/>
		<path fill="#7C8D9B" d="M424.971,473.723v1.85h-4.004v18.164h-2.153v-18.164h-4.002v-1.85H424.971z"/>
		<path fill="#7C8D9B" d="M429.28,493.736h-2.154v-20.014h3.232l3.51,13.209l3.541-13.209h3.231v20.014h-2.155v-16.564
			l-3.603,13.486h-2.002l-3.603-13.486L429.28,493.736L429.28,493.736z"/>
		<path fill="#7C8D9B" d="M444.95,493.736v-20.014h2.156v18.166h5.633v1.848H444.95L444.95,493.736z"/>
	</g>
</g>
<g>
	<path fill="#7C8D9B" d="M1022.107,1115.43h-98.956V981.289h64.227l34.729,34.729V1115.43z M925.352,1113.23h94.56v-96.305
		l-33.441-33.438h-61.116L925.352,1113.23L925.352,1113.23z"/>
	<path fill="#7C8D9B" d="M1022.107,1115.43h-98.956V981.289h63.771v35.184h35.186V1115.43L1022.107,1115.43z M925.352,1113.23h94.56
		v-94.561h-35.188v-35.184h-59.372V1113.23L925.352,1113.23z"/>
	<g>
		<path fill="#7C8D9B" d="M958.38,1099.982h-2.771v-3.389h2.771V1099.982z"/>
		<path fill="#7C8D9B" d="M964.383,1099.982h-2.154v-20.016h3.232l3.509,13.209l3.541-13.209h3.232v20.016h-2.154v-16.564
			l-3.602,13.486h-2.003l-3.604-13.486L964.383,1099.982L964.383,1099.982z"/>
		<path fill="#7C8D9B" d="M985.009,1099.982h-4.957v-20.016h4.957c1.603,0,2.817,0.383,3.648,1.143
			c0.831,0.758,1.246,1.814,1.246,3.172v11.391c0,1.375-0.41,2.438-1.23,3.188C987.854,1099.605,986.63,1099.982,985.009,1099.982z
			 M987.749,1095.672v-11.391c0-0.656-0.242-1.232-0.725-1.727c-0.481-0.488-1.153-0.736-2.018-0.736h-2.802v16.314h2.802
			c0.862,0,1.534-0.242,2.018-0.723C987.507,1096.932,987.749,1096.352,987.749,1095.672z"/>
	</g>
</g>
<g>
	<path fill="#7C8D9B" d="M457.225,1063.512h-98.956V929.37h64.227l34.729,34.729V1063.512z M360.468,1061.312h94.56V965.01
		l-33.441-33.438h-61.117L360.468,1061.312L360.468,1061.312z"/>
	<path fill="#7C8D9B" d="M457.225,1063.512h-98.956V929.37h63.771v35.185h35.185V1063.512z M360.468,1061.312h94.56v-94.561h-35.187
		v-35.184h-59.373V1061.312L360.468,1061.312z"/>
	<g>
		<path fill="#7C8D9B" d="M393.498,1048.064h-2.771v-3.388h2.771V1048.064z"/>
		<path fill="#7C8D9B" d="M399.501,1048.064h-2.155v-20.015h3.233l3.509,13.209l3.541-13.209h3.232v20.015h-2.154V1031.5
			l-3.602,13.486h-2.002L399.5,1031.5L399.501,1048.064L399.501,1048.064z"/>
		<path fill="#7C8D9B" d="M420.127,1048.064h-4.957v-20.015h4.957c1.602,0,2.817,0.383,3.648,1.142
			c0.831,0.758,1.246,1.815,1.246,3.172v11.391c0,1.375-0.41,2.438-1.23,3.188C422.97,1047.688,421.748,1048.064,420.127,1048.064z
			 M422.867,1043.754v-11.391c0-0.656-0.242-1.232-0.726-1.726c-0.48-0.489-1.152-0.737-2.016-0.737h-2.802v16.315h2.802
			c0.862,0,1.534-0.241,2.016-0.724C422.625,1045.014,422.867,1044.434,422.867,1043.754z"/>
	</g>
</g>
<g>
	<path fill="#7C8D9B" d="M735.834,887.795h-98.955V753.654h64.227l34.73,34.729L735.834,887.795L735.834,887.795z M639.077,885.596
		h94.56v-96.303l-33.44-33.438h-61.118L639.077,885.596L639.077,885.596z"/>
	<path fill="#7C8D9B" d="M735.834,887.795h-98.955V753.654h63.771v35.185h35.184V887.795z M639.077,885.596h94.56v-94.559h-35.186
		v-35.186h-59.374V885.596z"/>
	<path fill="#7C8D9B" d="M659.426,872.348h-2.771v-3.387h2.771V872.348z"/>
	<path fill="#7C8D9B" d="M665.164,852.334h6.157v16.473c0,1.314-0.369,2.312-1.106,2.986c-0.74,0.678-1.767,1.016-3.08,1.016
		c-1.312,0-2.328-0.338-3.047-1.016c-0.72-0.676-1.078-1.672-1.078-2.986v-2.002h2.154v2.127c0,1.354,0.657,2.031,1.971,2.031
		c1.354,0,2.032-0.68,2.032-2.031v-14.748h-4.003V852.334z"/>
	<path fill="#7C8D9B" d="M685.113,868.5c0,2.873-1.734,4.309-5.203,4.309s-5.203-1.436-5.203-4.309v-2.619h2.155v2.74
		c0,0.737,0.257,1.312,0.771,1.725c0.512,0.411,1.271,0.617,2.277,0.617s1.766-0.207,2.277-0.617
		c0.514-0.41,0.771-0.969,0.771-1.678c0-0.707-0.077-1.271-0.231-1.691c-0.153-0.422-0.467-0.866-0.938-1.34l-5.418-5.297
		c-0.637-0.635-1.071-1.258-1.31-1.863c-0.234-0.604-0.354-1.368-0.354-2.293c0-1.375,0.426-2.436,1.278-3.186
		c0.851-0.748,2.139-1.123,3.862-1.123c3.305,0,4.957,1.436,4.957,4.309v2.617h-2.154v-2.737c0-0.739-0.242-1.313-0.725-1.728
		c-0.481-0.408-1.205-0.613-2.17-0.613c-0.966,0-1.689,0.205-2.171,0.613c-0.481,0.412-0.724,0.976-0.724,1.695
		c0,0.719,0.07,1.28,0.216,1.691c0.144,0.408,0.462,0.843,0.953,1.293l5.512,5.298c0.597,0.655,1.007,1.284,1.231,1.892
		C685,866.811,685.113,867.576,685.113,868.5z"/>
	<path fill="#7C8D9B" d="M698.812,856.184V868.5c0,1.375-0.438,2.438-1.309,3.186c-0.873,0.75-2.177,1.123-3.91,1.123
		c-1.734,0-3.043-0.373-3.926-1.123c-0.883-0.747-1.324-1.811-1.324-3.186v-12.316c0-1.375,0.438-2.436,1.311-3.186
		c0.871-0.748,2.175-1.123,3.908-1.123c1.734,0,3.043,0.375,3.927,1.123C698.37,853.748,698.812,854.809,698.812,856.184z
		 M696.658,868.5v-12.316c0-1.641-1.027-2.461-3.08-2.461c-2.052,0-3.078,0.82-3.078,2.461V868.5c0,1.643,1.026,2.463,3.078,2.463
		C695.631,870.963,696.658,870.143,696.658,868.5z"/>
	<path fill="#7C8D9B" d="M704.816,872.348h-2.155v-20.014h2.155l6.681,15.396v-15.396h2.155v20.014h-2.155l-6.681-15.395V872.348z"
		/>
</g>
<g>
	<path fill="#7C8D9B" d="M148.243,1142.387H49.287v-134.141h64.228l34.729,34.729L148.243,1142.387L148.243,1142.387z
		 M51.486,1140.188h94.558v-96.301l-33.44-33.439H51.486V1140.188z"/>
	<path fill="#7C8D9B" d="M148.243,1142.387H49.287v-134.141h63.772v35.184h35.184V1142.387L148.243,1142.387z M51.486,1140.188
		h94.558v-94.559H110.86v-35.184H51.486V1140.188z"/>
	<path fill="#7C8D9B" d="M85.027,1126.939h-2.771v-3.389h2.771V1126.939L85.027,1126.939z"/>
	<path fill="#7C8D9B" d="M90.768,1106.928h6.157v16.473c0,1.312-0.369,2.311-1.108,2.986c-0.738,0.676-1.765,1.018-3.079,1.018
		c-1.312,0-2.33-0.342-3.047-1.018c-0.718-0.678-1.078-1.674-1.078-2.986v-2h2.155v2.125c0,1.354,0.658,2.029,1.97,2.029
		c1.354,0,2.034-0.678,2.034-2.029v-14.746h-4.004V1106.928z"/>
	<path fill="#7C8D9B" d="M110.716,1123.092c0,2.873-1.735,4.312-5.203,4.312c-3.468,0-5.201-1.438-5.201-4.312v-2.617h2.154v2.74
		c0,0.738,0.255,1.314,0.771,1.725c0.511,0.41,1.271,0.615,2.276,0.615c1.005,0,1.766-0.205,2.278-0.615
		c0.514-0.408,0.771-0.969,0.771-1.678s-0.076-1.271-0.231-1.691c-0.155-0.42-0.468-0.867-0.94-1.342l-5.416-5.295
		c-0.638-0.635-1.073-1.258-1.311-1.861c-0.235-0.604-0.352-1.371-0.352-2.295c0-1.373,0.425-2.438,1.275-3.186
		c0.853-0.75,2.139-1.123,3.865-1.123c3.304,0,4.957,1.436,4.957,4.309v2.617h-2.156v-2.736c0-0.742-0.24-1.314-0.724-1.729
		c-0.483-0.406-1.205-0.613-2.171-0.613c-0.965,0-1.688,0.206-2.17,0.613c-0.482,0.412-0.723,0.977-0.723,1.693
		c0,0.721,0.07,1.283,0.217,1.695c0.142,0.407,0.459,0.842,0.953,1.293l5.511,5.295c0.595,0.658,1.005,1.287,1.232,1.893
		C110.603,1121.404,110.716,1122.168,110.716,1123.092z"/>
</g>
<g>
	<path fill="#7C8D9B" d="M830.248,609.738h-98.957V475.598h64.229l34.729,34.729L830.248,609.738L830.248,609.738z M733.49,607.539
		h94.559v-96.301l-33.438-33.441h-61.12L733.49,607.539L733.49,607.539z"/>
	<path fill="#7C8D9B" d="M830.248,609.738h-98.957V475.598h63.773v35.186h35.184V609.738L830.248,609.738z M733.49,607.539h94.559
		V512.98h-35.184v-35.186H733.49V607.539z"/>
	<g>
		<path fill="#7C8D9B" d="M762.549,594.291h-2.771v-3.387h2.771V594.291z"/>
		<path fill="#7C8D9B" d="M771.322,594.291h-2.154v-7.174l-5.08-12.838h2.279l3.879,10.312l3.879-10.312h2.277l-5.08,12.869V594.291
			z"/>
		<path fill="#7C8D9B" d="M780.557,594.291h-2.152v-20.012h3.23l3.51,13.207l3.541-13.207h3.232v20.012h-2.154v-16.562
			l-3.602,13.486h-2.002l-3.604-13.486L780.557,594.291L780.557,594.291z"/>
		<path fill="#7C8D9B" d="M796.229,594.291v-20.012h2.154v18.166h5.635v1.846H796.229z"/>
	</g>
</g>
</svg>
