<?xml version="1.0" encoding="utf-8"?>
<!-- Generator: Adobe Illustrator 16.0.4, SVG Export Plug-In . SVG Version: 6.00 Build 0)  -->
<!DOCTYPE svg PUBLIC "-//W3C//DTD SVG 1.1//EN" "http://www.w3.org/Graphics/SVG/1.1/DTD/svg11.dtd">
<svg version="1.1" id="Layer_1" xmlns="http://www.w3.org/2000/svg" xmlns:xlink="http://www.w3.org/1999/xlink" x="0px" y="0px"
	 width="720px" height="572.972px" viewBox="0 0 720 572.972" enable-background="new 0 0 720 572.972" xml:space="preserve">
<g>
	<path fill="#F9FAF3" d="M360,560.723c-73.251,0-142.118-28.525-193.914-80.322c-51.796-51.796-80.322-120.663-80.322-193.914
		c0-73.251,28.525-142.118,80.322-193.915S286.749,12.25,360,12.25s142.118,28.525,193.914,80.322
		c51.797,51.796,80.322,120.664,80.322,193.915S605.711,428.604,553.914,480.4C502.118,532.197,433.251,560.723,360,560.723z"/>
	<path fill="#EFF0E9" d="M360,19.25c36.083,0,71.079,7.064,104.016,20.995c31.821,13.459,60.402,32.729,84.949,57.276
		c24.547,24.547,43.817,53.128,57.276,84.949c13.932,32.937,20.995,67.933,20.995,104.016s-7.063,71.079-20.995,104.016
		c-13.459,31.821-32.729,60.401-57.276,84.949c-24.547,24.547-53.128,43.817-84.949,57.276
		c-32.937,13.932-67.933,20.995-104.016,20.995s-71.079-7.063-104.016-20.995c-31.82-13.459-60.401-32.729-84.948-57.276
		c-24.547-24.548-43.817-53.128-57.276-84.949c-13.931-32.937-20.995-67.933-20.995-104.016s7.064-71.079,20.995-104.016
		c13.459-31.821,32.729-60.401,57.276-84.949c24.547-24.547,53.128-43.817,84.948-57.276C288.921,26.314,323.917,19.25,360,19.25
		 M360,5.25c-155.322,0-281.236,125.914-281.236,281.236c0,155.322,125.914,281.236,281.236,281.236
		s281.236-125.914,281.236-281.236C641.236,131.164,515.322,5.25,360,5.25L360,5.25z"/>
</g>
<g>
	<path fill="#748988" stroke="#748988" stroke-width="4" stroke-miterlimit="10" d="M352.151,255.63
		c-40.919,0-74.213-37.91-74.213-84.509c0-2.157,1.749-3.901,3.903-3.901h140.626c2.157,0,3.902,1.744,3.902,3.901
		C426.364,217.725,393.07,255.63,352.151,255.63z M285.829,175.03c1.765,40.481,30.838,72.798,66.323,72.798
		c35.49,0,64.561-32.317,66.33-72.798H285.829z"/>
	<path fill="#748988" stroke="#748988" stroke-width="4" stroke-miterlimit="10" d="M426.316,269.072l-7.807-0.024l0.04-13.476
		H285.724l-0.043,13.5l-7.805-0.024l0.05-17.389c0.004-2.152,1.753-3.893,3.903-3.893H422.46c1.044,0,2.038,0.411,2.765,1.145
		c0.732,0.737,1.146,1.737,1.14,2.772L426.316,269.072z"/>
	<path fill="#748988" stroke="#748988" stroke-width="4" stroke-miterlimit="10" d="M436.287,307.304h-168.27
		c-1.195,0-2.321-0.547-3.06-1.479l-26.809-33.906c-0.927-1.175-1.103-2.775-0.453-4.122c0.652-1.348,2.018-2.195,3.512-2.195
		h221.888c1.5,0,2.866,0.854,3.518,2.201c0.649,1.345,0.473,2.946-0.451,4.12l-26.81,33.902
		C438.61,306.757,437.478,307.304,436.287,307.304z M269.908,299.502h164.487l20.638-26.1H249.272L269.908,299.502z"/>
	<path fill="#748988" stroke="#748988" stroke-width="4" stroke-miterlimit="10" d="M436.996,443.549H267.304
		c-2.154,0-3.903-1.744-3.903-3.901V303.399c0-2.16,1.749-3.905,3.903-3.905c2.159,0,3.903,1.745,3.903,3.905v132.348h161.884
		V303.399c0-2.16,1.744-3.905,3.905-3.905s3.905,1.745,3.905,3.905v136.252C440.895,441.805,439.147,443.549,436.996,443.549z"/>
	<path fill="#748988" stroke="#748988" stroke-width="4" stroke-miterlimit="10" d="M466.247,474.993H238.056
		c-1.553,0-2.955-0.925-3.579-2.349c-0.618-1.426-0.336-3.081,0.724-4.223l29.247-31.431c1.474-1.575,3.937-1.661,5.519-0.201
		c1.578,1.476,1.666,3.938,0.196,5.521l-23.145,24.872h210.261l-23.145-24.872c-1.472-1.583-1.378-4.053,0.198-5.521
		c1.583-1.46,4.049-1.374,5.518,0.201l29.25,31.431c1.056,1.138,1.336,2.797,0.721,4.223
		C469.198,474.068,467.792,474.993,466.247,474.993z"/>
	<path fill="#748988" stroke="#748988" stroke-width="4" stroke-miterlimit="10" d="M409.433,418.276H294.861
		c-2.158,0-3.902-1.754-3.902-3.91v-64.726c0-2.161,1.744-3.905,3.902-3.905h114.572c2.159,0,3.905,1.744,3.905,3.905v64.726
		C413.338,416.522,411.592,418.276,409.433,418.276z M298.764,410.465h106.768v-56.92H298.764V410.465z"/>
	<path fill="#748988" stroke="#748988" stroke-width="4" stroke-miterlimit="10" d="M352.151,393.312
		c-6.521,0-11.825-5.344-11.825-11.917c0-6.572,5.305-11.912,11.825-11.912c6.52,0,11.824,5.34,11.824,11.912
		C363.976,387.969,358.671,393.312,352.151,393.312z M352.151,377.285c-2.214,0-4.018,1.843-4.018,4.11
		c0,2.266,1.804,4.107,4.018,4.107s4.015-1.842,4.015-4.107C356.166,379.136,354.362,377.285,352.151,377.285z"/>
	<path fill="#748988" stroke="#748988" stroke-width="4" stroke-miterlimit="10" d="M367.99,162.843"/>
	<path fill="#748988" stroke="#748988" stroke-width="4" stroke-miterlimit="10" d="M512.948,129.331
		c-8.34,0-15.13-6.783-15.13-15.131c0-8.348,6.79-15.131,15.13-15.131c8.346,0,15.137,6.788,15.137,15.131
		S521.294,129.331,512.948,129.331z M512.948,106.874c-4.039,0-7.324,3.286-7.324,7.326c0,4.036,3.285,7.321,7.324,7.321
		c4.045,0,7.329-3.285,7.329-7.321C520.277,110.16,516.993,106.874,512.948,106.874z"/>
	<path fill="#748988" stroke="#748988" stroke-width="4" stroke-miterlimit="10" d="M512.948,144.411H367.99
		c-2.153,0-3.901-1.745-3.901-3.9c0-2.159,1.748-3.904,3.901-3.904h141.059v-11.179c0-2.158,1.743-3.907,3.899-3.907
		c2.165,0,3.908,1.745,3.908,3.907v15.083C516.856,142.666,515.113,144.411,512.948,144.411z"/>
	<path fill="#748988" stroke="#748988" stroke-width="4" stroke-miterlimit="10" d="M352.151,161.011
		c-10.888,0-19.744-8.861-19.744-19.743c0-10.881,8.856-19.743,19.744-19.743c10.891,0,19.743,8.862,19.743,19.743
		C371.895,152.15,363.042,161.011,352.151,161.011z M352.151,129.331c-6.583,0-11.939,5.356-11.939,11.938
		c0,6.583,5.356,11.939,11.939,11.939c6.58,0,11.938-5.356,11.938-11.939C364.089,134.687,358.731,129.331,352.151,129.331z"/>
	
		<rect x="348.249" y="153.201" fill="#748988" stroke="#748988" stroke-width="4" stroke-miterlimit="10" width="7.803" height="17.92"/>
</g>
</svg>
