<?xml version="1.0" encoding="utf-8"?>
<!-- Generator: Adobe Illustrator 16.0.4, SVG Export Plug-In . SVG Version: 6.00 Build 0)  -->
<!DOCTYPE svg PUBLIC "-//W3C//DTD SVG 1.1//EN" "http://www.w3.org/Graphics/SVG/1.1/DTD/svg11.dtd">
<svg version="1.1" id="Layer_1" xmlns="http://www.w3.org/2000/svg" xmlns:xlink="http://www.w3.org/1999/xlink" x="0px" y="0px"
	 width="720px" height="572.972px" viewBox="0 0 720 572.972" enable-background="new 0 0 720 572.972" xml:space="preserve">
<g>
	<path fill="#F9FAF3" d="M360,560.722c-73.251,0-142.118-28.525-193.914-80.322c-51.796-51.796-80.322-120.663-80.322-193.914
		s28.525-142.118,80.322-193.914S286.749,12.25,360,12.25s142.118,28.525,193.914,80.322
		c51.797,51.796,80.322,120.663,80.322,193.914S605.711,428.604,553.914,480.4C502.118,532.197,433.251,560.722,360,560.722z"/>
	<path fill="#EFF0E9" d="M360,19.25c36.083,0,71.079,7.064,104.016,20.995c31.821,13.459,60.402,32.729,84.949,57.276
		s43.817,53.128,57.276,84.948c13.932,32.938,20.995,67.934,20.995,104.016c0,36.083-7.063,71.079-20.995,104.016
		c-13.459,31.821-32.729,60.401-57.276,84.949c-24.547,24.547-53.128,43.817-84.949,57.276
		c-32.937,13.932-67.933,20.995-104.016,20.995s-71.079-7.063-104.016-20.995c-31.82-13.459-60.401-32.729-84.948-57.276
		c-24.547-24.548-43.817-53.128-57.276-84.949c-13.931-32.937-20.995-67.933-20.995-104.016c0-36.083,7.064-71.079,20.995-104.016
		c13.459-31.82,32.729-60.401,57.276-84.948s53.128-43.818,84.948-57.276C288.921,26.314,323.917,19.25,360,19.25 M360,5.25
		c-155.322,0-281.236,125.914-281.236,281.236S204.678,567.722,360,567.722s281.236-125.914,281.236-281.236S515.322,5.25,360,5.25
		L360,5.25z"/>
</g>
<path fill="#748988" d="M493.208,211.194h-70.015c11.85-6.742,17.89-16.38,17.89-28.958c0-31.147-19.829-34.75-34.75-34.75
	c-19.117,0-37.369,21.945-46.333,44.026c-8.965-22.081-27.21-44.026-46.333-44.026c-14.92,0-34.75,3.603-34.75,34.75
	c0,12.579,6.04,22.216,17.89,28.958h-70.015c-3.195,0-5.792,2.59-5.792,5.792v69.5c0,3.201,2.597,5.791,5.792,5.791h23.167v127.416
	c0,3.201,2.596,5.793,5.791,5.793h208.5c3.195,0,5.793-2.592,5.793-5.793V292.277h23.165c3.195,0,5.792-2.59,5.792-5.791v-69.5
	C499,213.785,496.403,211.194,493.208,211.194z M406.333,159.069c14.671,0,23.167,3.789,23.167,23.167
	c0,22.38-33.048,28.229-63.256,28.891C369.468,188.938,389.468,159.069,406.333,159.069z M290.5,182.236
	c0-19.377,8.496-23.167,23.167-23.167c16.866,0,36.865,29.869,40.089,52.057C323.548,210.464,290.5,204.616,290.5,182.236z
	 M331.042,413.902h-69.5V292.277h69.5V413.902z M331.042,280.693H255.75h-23.166v-57.916h98.458V280.693z M377.375,413.902h-34.75
	V292.277h34.75V413.902z M377.375,280.693h-34.75v-57.916H360h0.116h17.259V280.693z M458.458,413.902h-69.5V292.277h69.5V413.902z
	 M487.418,280.693H464.25h-75.292v-57.916h98.46V280.693z"/>
</svg>
