<?xml version="1.0" encoding="utf-8"?>
<!-- Generator: Adobe Illustrator 16.0.4, SVG Export Plug-In . SVG Version: 6.00 Build 0)  -->
<!DOCTYPE svg PUBLIC "-//W3C//DTD SVG 1.1//EN" "http://www.w3.org/Graphics/SVG/1.1/DTD/svg11.dtd">
<svg version="1.1" id="Layer_1" xmlns="http://www.w3.org/2000/svg" xmlns:xlink="http://www.w3.org/1999/xlink" x="0px" y="0px"
	 width="720px" height="572.972px" viewBox="0 0 720 572.972" enable-background="new 0 0 720 572.972" xml:space="preserve">
<g>
	<path fill="#F9FAF3" d="M360,560.722c-73.251,0-142.118-28.525-193.914-80.322c-51.796-51.796-80.322-120.663-80.322-193.914
		s28.525-142.118,80.322-193.914S286.749,12.25,360,12.25s142.118,28.525,193.914,80.322
		c51.797,51.796,80.322,120.663,80.322,193.914S605.711,428.604,553.914,480.4C502.118,532.197,433.251,560.722,360,560.722z"/>
	<path fill="#EFF0E9" d="M360,19.25c36.083,0,71.079,7.064,104.016,20.995c31.821,13.459,60.402,32.729,84.949,57.276
		s43.817,53.128,57.276,84.948c13.932,32.938,20.995,67.934,20.995,104.016c0,36.083-7.063,71.079-20.995,104.016
		c-13.459,31.821-32.729,60.401-57.276,84.949c-24.547,24.547-53.128,43.817-84.949,57.276
		c-32.937,13.932-67.933,20.995-104.016,20.995s-71.079-7.063-104.016-20.995c-31.82-13.459-60.401-32.729-84.948-57.276
		c-24.547-24.548-43.817-53.128-57.276-84.949c-13.931-32.937-20.995-67.933-20.995-104.016c0-36.083,7.064-71.079,20.995-104.016
		c13.459-31.82,32.729-60.401,57.276-84.948s53.128-43.818,84.948-57.276C288.921,26.314,323.917,19.25,360,19.25 M360,5.25
		c-155.322,0-281.236,125.914-281.236,281.236S204.678,567.722,360,567.722s281.236-125.914,281.236-281.236S515.322,5.25,360,5.25
		L360,5.25z"/>
</g>
<g>
	<path fill="#748988" stroke="#748988" stroke-width="4" stroke-miterlimit="10" d="M389.982,147.646l-43.126-21.454l36.693-73.767
		l43.122,21.452L389.982,147.646L389.982,147.646z M359.133,122.073l26.729,13.293l28.536-57.367l-26.726-13.295L359.133,122.073
		L359.133,122.073z"/>
</g>
<g>
	<path fill="#748988" stroke="#748988" stroke-width="4" stroke-miterlimit="10" d="M364.588,204.922
		c-3.25,0-6.504-0.796-9.405-2.307l-30.488-15.834c-4.844-2.513-8.418-6.769-10.061-11.967c-1.649-5.208-1.169-10.743,1.35-15.584
		l14.663-28.231c3.529-6.793,10.481-11.018,18.146-11.018c3.25,0,6.5,0.796,9.401,2.302l30.494,15.832
		c4.846,2.521,8.418,6.773,10.062,11.977c1.641,5.208,1.166,10.742-1.355,15.584l-14.658,28.231
		C379.207,200.693,372.253,204.922,364.588,204.922L364.588,204.922z M348.792,129.132c-4.236,0-8.076,2.329-10.021,6.082
		l-14.663,28.24c-1.393,2.673-1.656,5.722-0.751,8.592c0.912,2.87,2.879,5.222,5.552,6.612l30.489,15.834
		c5.43,2.812,12.422,0.55,15.213-4.81l14.656-28.235c1.395-2.673,1.657-5.727,0.746-8.597c-0.908-2.87-2.88-5.222-5.553-6.612
		l-30.493-15.83C352.348,129.557,350.609,129.132,348.792,129.132L348.792,129.132z"/>
</g>
<g>
	<path fill="#748988" stroke="#748988" stroke-width="4" stroke-miterlimit="10" d="M442.019,460.537l-61.657-41.258l2.64-3.816
		c46.14-66.852,0.312-144.808-0.161-145.589l7.852-4.708c0.486,0.814,47.564,80.897,2.408,151.629l45.34,30.336
		c5.704-12.539,20.712-49.059,24.202-92.803c5.736-71.781-20.656-128.073-78.45-167.292l5.141-7.578
		c144.762,98.252,55.947,274.754,55.031,276.534L442.019,460.537L442.019,460.537z"/>
</g>
<g>
	<path fill="#748988" stroke="#748988" stroke-width="4" stroke-miterlimit="10" d="M364.452,413.093H245.509
		c-10.387,0-18.834-9.17-18.834-20.436v-4.1c0-11.266,8.447-20.438,18.834-20.438h118.943c10.387,0,18.834,9.172,18.834,20.438v4.1
		C383.286,403.923,374.839,413.093,364.452,413.093L364.452,413.093z M245.509,377.275c-5.337,0-9.678,5.061-9.678,11.283v4.1
		c0,6.219,4.341,11.279,9.678,11.279h118.943c5.338,0,9.679-5.061,9.679-11.279v-4.1c0-6.219-4.341-11.283-9.679-11.283H245.509
		L245.509,377.275z"/>
</g>
<g>
	<polygon fill="#748988" stroke="#748988" stroke-width="4" stroke-miterlimit="10" points="338.675,341.119 310.751,320.898 
		310.751,267.521 319.906,267.521 319.906,316.222 338.148,329.433 352.999,316.486 352.61,267.553 361.766,267.481 
		362.186,320.634 	"/>
</g>
<g>
	<path fill="#748988" stroke="#748988" stroke-width="4" stroke-miterlimit="10" d="M427.369,298.46
		c-11.923,0-21.633-9.91-21.633-22.083c0-12.186,9.7-22.093,21.633-22.093c11.923,0,21.623,9.907,21.623,22.093
		C448.992,288.55,439.292,298.46,427.369,298.46L427.369,298.46z M427.369,263.439c-6.875,0-12.478,5.803-12.478,12.938
		c0,7.126,5.603,12.929,12.478,12.929s12.468-5.803,12.468-12.929C439.837,269.242,434.244,263.439,427.369,263.439L427.369,263.439
		z"/>
</g>
<g>
	<path fill="#748988" stroke="#748988" stroke-width="4" stroke-miterlimit="10" d="M490.519,482.339H236.027l-0.577-3.906
		c-0.076-0.527-7.191-52.887,44.208-72.193l0.778-0.289h86.104c1.487,0,2.976-0.447,4.425-1.342l2.52-1.537L490.519,482.339
		L490.519,482.339z M244.217,473.185H460.67l-87.652-59.373c-2.092,0.863-4.263,1.293-6.481,1.293h-84.422
		C246.034,429.101,243.842,461.882,244.217,473.185L244.217,473.185z"/>
</g>
<g>
	<path fill="#748988" stroke="#748988" stroke-width="4" stroke-miterlimit="10" d="M395.803,263.507
		c-10.809,0-19.609-8.838-19.609-19.701c0-10.863,8.802-19.706,19.609-19.706c10.807,0,19.601,8.843,19.601,19.706
		C415.403,254.669,406.608,263.507,395.803,263.507L395.803,263.507z M395.803,233.264c-5.767,0-10.451,4.727-10.451,10.542
		c0,5.82,4.686,10.55,10.451,10.55c5.76,0,10.443-4.729,10.443-10.55C406.246,237.99,401.562,233.264,395.803,233.264
		L395.803,233.264z"/>
</g>
<g>
	<path fill="#748988" stroke="#748988" stroke-width="4" stroke-miterlimit="10" d="M391.346,272.1h-90.942V167.598l4.397-0.174
		c0,0,6.482-0.255,10.628-0.255c1.634,0,3.114,0,4.35,0.299l3.125,0.188l0.952,3.008c0.912,2.879,2.886,5.235,5.559,6.621
		l30.486,15.834c5.416,2.808,12.421,0.554,15.208-4.81l7.586-14.618l8.643,2.11l0.004,58.192l-1.797,1.372
		c-2.656,2.034-4.186,5.083-4.186,8.364c0,3.286,1.529,6.335,4.186,8.364l1.797,1.373V272.1H391.346z M309.56,262.943h72.631v-5.114
		c-3.821-3.706-5.979-8.722-5.979-14.091c0-5.369,2.153-10.389,5.979-14.086v-35.33c-3.754,5.74-10.135,9.231-17.103,9.231
		c-3.25,0-6.505-0.796-9.408-2.298l-30.489-15.834c-3.871-2.007-6.934-5.132-8.847-8.968l-2.021-0.112
		c-1.524,0.013-3.241,0.049-4.771,0.094v86.507L309.56,262.943L309.56,262.943z"/>
</g>
</svg>
