<?xml version="1.0" encoding="utf-8"?>
<!-- Generator: Adobe Illustrator 16.0.1, SVG Export Plug-In . SVG Version: 6.00 Build 0)  -->
<!DOCTYPE svg PUBLIC "-//W3C//DTD SVG 1.1//EN" "http://www.w3.org/Graphics/SVG/1.1/DTD/svg11.dtd">
<svg version="1.1" xmlns="http://www.w3.org/2000/svg" xmlns:xlink="http://www.w3.org/1999/xlink" x="0px" y="0px" width="64px"
	 height="64px" viewBox="0 0 64 64" enable-background="new 0 0 64 64" xml:space="preserve">
<g id="Layer_1" display="none">
	<g display="inline" opacity="0.2">
		<path d="M32,3c15.99,0,29,13.01,29,29c0,15.99-13.01,29-29,29C16.009,61,3,47.99,3,32C3,16.009,16.009,3,32,3 M32,0
			C14.326,0,0,14.326,0,32c0,17.673,14.327,32,32,32c17.673,0,32-14.327,32-32C64,14.326,49.673,0,32,0L32,0z"/>
	</g>
</g>
<g id="Layer_3" display="none">
	<g display="inline" opacity="0.1">
		<line fill="none" stroke="#000000" stroke-width="0.5" stroke-miterlimit="10" x1="6.708" y1="31.949" x2="55.965" y2="31.949"/>
		<g>
			
				<line fill="none" stroke="#000000" stroke-width="0.5" stroke-miterlimit="10" x1="43.119" y1="15.961" x2="43.119" y2="45.936"/>
			
				<line fill="none" stroke="#000000" stroke-width="0.5" stroke-miterlimit="10" x1="53.906" y1="18.961" x2="53.906" y2="42.938"/>
			
				<line fill="none" stroke="#000000" stroke-width="0.5" stroke-miterlimit="10" x1="32.333" y1="18.961" x2="32.333" y2="42.936"/>
			
				<line fill="none" stroke="#000000" stroke-width="0.5" stroke-miterlimit="10" x1="21.546" y1="15.961" x2="21.546" y2="45.936"/>
			
				<line fill="none" stroke="#000000" stroke-width="0.5" stroke-miterlimit="10" x1="10.759" y1="18.961" x2="10.759" y2="42.936"/>
		</g>
	</g>
</g>
<g id="Layer_2">
	<polyline fill="none" stroke="#1C588E" stroke-linecap="round" stroke-miterlimit="10" points="36.696,43.331 22.205,34.224 
		7.716,34.224 	"/>
	<path fill="none" stroke="#1C588E" stroke-miterlimit="10" d="M51.188,28.837c0,8.001-6.486,14.494-14.491,14.494"/>
	<path fill="none" stroke="#CD632E" stroke-linecap="round" stroke-linejoin="round" stroke-miterlimit="10" d="M58.951,28.767
		h-7.764c0-8-6.486-13.146-14.491-13.146v27.711L22.205,15.62L7.716,43.331"/>
	<path fill="none" stroke="#1C588E" stroke-miterlimit="10" d="M36.696,43.331"/>
	<circle fill="#FFFFFF" stroke="#CD632E" stroke-miterlimit="10" cx="22.205" cy="15.62" r="1.688"/>
	<circle fill="#FFFFFF" stroke="#1C588E" stroke-miterlimit="10" cx="7.716" cy="34.224" r="1.688"/>
	<path fill="#FFFFFF" stroke="#CD632E" stroke-miterlimit="10" d="M9.404,43.331c0,0.932-0.758,1.686-1.688,1.686
		c-0.934,0-1.688-0.754-1.688-1.686c0-0.937,0.755-1.688,1.688-1.688C8.646,41.643,9.404,42.395,9.404,43.331z"/>
	<path fill="#FFFFFF" stroke="#CD632E" stroke-miterlimit="10" d="M38.385,43.331c0,0.932-0.757,1.686-1.688,1.686
		c-0.934,0-1.689-0.754-1.689-1.686c0-0.937,0.756-1.688,1.689-1.688C37.628,41.643,38.385,42.395,38.385,43.331z"/>
	<circle fill="#FFFFFF" stroke="#CD632E" stroke-miterlimit="10" cx="36.696" cy="15.62" r="1.689"/>
	<circle fill="#FFFFFF" stroke="#CD632E" stroke-miterlimit="10" cx="58.95" cy="28.837" r="1.689"/>
	<circle fill="#FFFFFF" stroke="#1C588E" stroke-miterlimit="10" cx="22.205" cy="34.224" r="1.688"/>
	<circle fill="#FFFFFF" stroke="#1C588E" stroke-miterlimit="10" cx="51.189" cy="28.837" r="1.689"/>
</g>
</svg>
