<?xml version="1.0" encoding="utf-8"?>
<!-- Generator: Adobe Illustrator 16.0.1, SVG Export Plug-In . SVG Version: 6.00 Build 0)  -->
<!DOCTYPE svg PUBLIC "-//W3C//DTD SVG 1.1//EN" "http://www.w3.org/Graphics/SVG/1.1/DTD/svg11.dtd">
<svg version="1.1" id="Layer_1" xmlns="http://www.w3.org/2000/svg" xmlns:xlink="http://www.w3.org/1999/xlink" x="0px" y="0px"
	 width="64px" height="64px" viewBox="0 0 64 64" enable-background="new 0 0 64 64" xml:space="preserve">
<g id="Layer_4">
	<path fill="#4C5156" d="M54.984,20.351c0-1.344-1.094-2.438-2.438-2.438c-1.344,0-2.438,1.093-2.438,2.438c0,0.615,0.236,1.17,0.613,1.6
		l-9.646,16.203c-0.179-0.04-0.361-0.067-0.552-0.067c-0.393,0-0.758,0.103-1.086,0.267l-14.315-14.43
		c0.166-0.329,0.268-0.696,0.268-1.089c0-1.344-1.094-2.438-2.438-2.438c-1.344,0-2.438,1.093-2.438,2.438
		c0,0.657,0.264,1.252,0.688,1.691l-9.325,16.985c-0.158-0.032-0.321-0.05-0.489-0.05c-1.345,0-2.438,1.094-2.438,2.438
		c0,1.346,1.094,2.438,2.438,2.438c1.081,0,1.989-0.712,2.308-1.688H53.33V22.647C54.289,22.319,54.984,21.419,54.984,20.351z"/>
</g>
</svg>
