<?xml version="1.0" encoding="utf-8"?>
<!-- Generator: Adobe Illustrator 16.0.1, SVG Export Plug-In . SVG Version: 6.00 Build 0)  -->
<!DOCTYPE svg PUBLIC "-//W3C//DTD SVG 1.1//EN" "http://www.w3.org/Graphics/SVG/1.1/DTD/svg11.dtd">
<svg version="1.1" xmlns="http://www.w3.org/2000/svg" xmlns:xlink="http://www.w3.org/1999/xlink" x="0px" y="0px" width="64px"
	 height="64px" viewBox="0 0 64 64" enable-background="new 0 0 64 64" xml:space="preserve">
<g id="Layer_9">
	<g>
		<path d="M50.945,42.688h-35.33c-0.414,0-0.75-0.336-0.75-0.75s0.336-0.75,0.75-0.75h35.33c0.414,0,0.75,0.336,0.75,0.75
			S51.359,42.688,50.945,42.688z"/>
	</g>
	<g>
		<path d="M21.812,49.04c-0.414,0-0.75-0.336-0.75-0.75V11.96c0-0.414,0.336-0.75,0.75-0.75s0.75,0.336,0.75,0.75v36.33
			C22.562,48.704,22.227,49.04,21.812,49.04z"/>
	</g>
	<g>
		<path d="M19.812,13.688h-4.197c-0.414,0-0.75-0.336-0.75-0.75s0.336-0.75,0.75-0.75h4.197c0.414,0,0.75,0.336,0.75,0.75
			S20.227,13.688,19.812,13.688z"/>
	</g>
	<g>
		<path d="M19.812,19.688h-4.197c-0.414,0-0.75-0.336-0.75-0.75s0.336-0.75,0.75-0.75h4.197c0.414,0,0.75,0.336,0.75,0.75
			S20.227,19.688,19.812,19.688z"/>
	</g>
	<g>
		<path d="M19.812,25.688h-4.197c-0.414,0-0.75-0.336-0.75-0.75s0.336-0.75,0.75-0.75h4.197c0.414,0,0.75,0.336,0.75,0.75
			S20.227,25.688,19.812,25.688z"/>
	</g>
	<g>
		<path d="M19.812,31.688h-4.197c-0.414,0-0.75-0.336-0.75-0.75s0.336-0.75,0.75-0.75h4.197c0.414,0,0.75,0.336,0.75,0.75
			S20.227,31.688,19.812,31.688z"/>
	</g>
	<g>
		<path d="M19.812,37.688h-4.197c-0.414,0-0.75-0.336-0.75-0.75s0.336-0.75,0.75-0.75h4.197c0.414,0,0.75,0.336,0.75,0.75
			S20.227,37.688,19.812,37.688z"/>
	</g>
	<g>
		<path d="M26.25,49.04c-0.414,0-0.75-0.336-0.75-0.75v-4.197c0-0.414,0.336-0.75,0.75-0.75S27,43.679,27,44.093v4.197
			C27,48.704,26.664,49.04,26.25,49.04z"/>
	</g>
	<g>
		<path d="M32.25,49.04c-0.414,0-0.75-0.336-0.75-0.75v-4.197c0-0.414,0.336-0.75,0.75-0.75S33,43.679,33,44.093v4.197
			C33,48.704,32.664,49.04,32.25,49.04z"/>
	</g>
	<g>
		<path d="M38.25,49.04c-0.414,0-0.75-0.336-0.75-0.75v-4.197c0-0.414,0.336-0.75,0.75-0.75S39,43.679,39,44.093v4.197
			C39,48.704,38.664,49.04,38.25,49.04z"/>
	</g>
	<g>
		<path d="M44.25,49.04c-0.414,0-0.75-0.336-0.75-0.75v-4.197c0-0.414,0.336-0.75,0.75-0.75S45,43.679,45,44.093v4.197
			C45,48.704,44.664,49.04,44.25,49.04z"/>
	</g>
	<g>
		<path d="M50.25,49.04c-0.414,0-0.75-0.336-0.75-0.75v-4.197c0-0.414,0.336-0.75,0.75-0.75S51,43.679,51,44.093v4.197
			C51,48.704,50.664,49.04,50.25,49.04z"/>
	</g>
</g>
</svg>
