<?xml version="1.0" encoding="utf-8"?>
<!-- Generator: Adobe Illustrator 16.0.1, SVG Export Plug-In . SVG Version: 6.00 Build 0)  -->
<!DOCTYPE svg PUBLIC "-//W3C//DTD SVG 1.1//EN" "http://www.w3.org/Graphics/SVG/1.1/DTD/svg11.dtd">
<svg version="1.1" xmlns="http://www.w3.org/2000/svg" xmlns:xlink="http://www.w3.org/1999/xlink" x="0px" y="0px" width="64px"
	 height="64px" viewBox="0 0 64 64" enable-background="new 0 0 64 64" xml:space="preserve">
<g id="Layer_1" display="none">
	<g display="inline" opacity="0.2">
		<path d="M32,3c15.99,0,29,13.01,29,29c0,15.99-13.01,29-29,29C16.009,61,3,47.99,3,32C3,16.009,16.009,3,32,3 M32,0
			C14.326,0,0,14.326,0,32c0,17.673,14.327,32,32,32c17.673,0,32-14.327,32-32C64,14.326,49.673,0,32,0L32,0z"/>
	</g>
	
		<rect x="9.3" y="9.3" display="inline" fill="none" stroke="#000000" stroke-width="0.25" stroke-miterlimit="10" width="45.333" height="45.329"/>
	
		<rect x="11.387" y="11.386" display="inline" fill="none" stroke="#000000" stroke-width="0.25" stroke-miterlimit="10" width="41.16" height="41.157"/>
	
		<rect x="9.3" y="9.3" display="inline" fill="none" stroke="#000000" stroke-width="0.25" stroke-miterlimit="10" width="45.333" height="45.329"/>
	
		<rect x="9.302" y="9.299" transform="matrix(-0.7071 0.7071 -0.7071 -0.7071 77.1744 31.9612)" display="inline" fill="none" stroke="#000000" stroke-width="0.25" stroke-miterlimit="10" width="45.333" height="45.329"/>
	
		<rect x="11.387" y="11.386" transform="matrix(-0.7071 0.7071 -0.7071 -0.7071 77.1736 31.9619)" display="inline" fill="none" stroke="#000000" stroke-width="0.25" stroke-miterlimit="10" width="41.16" height="41.156"/>
	
		<rect x="9.302" y="9.299" transform="matrix(-0.7071 0.7071 -0.7071 -0.7071 77.1744 31.9612)" display="inline" fill="none" stroke="#000000" stroke-width="0.25" stroke-miterlimit="10" width="45.333" height="45.329"/>
	
		<rect x="4.674" y="22.48" display="inline" fill="none" stroke="#000000" stroke-width="0.25" stroke-miterlimit="10" width="54.585" height="18.968"/>
	
		<rect x="8.369" y="23.407" display="inline" fill="none" stroke="#000000" stroke-width="0.25" stroke-miterlimit="10" width="47.195" height="17.117"/>
	
		<rect x="4.674" y="22.48" display="inline" fill="none" stroke="#000000" stroke-width="0.25" stroke-miterlimit="10" width="54.585" height="18.968"/>
	<g display="inline" opacity="0.2">
		<path d="M31.932,2.996c15.99,0,29,13.01,29,29c0,15.99-13.01,29-29,29c-15.991,0-29-13.01-29-29
			C2.932,16.005,15.941,2.996,31.932,2.996 M31.932-0.004c-17.673,0-32,14.327-32,32c0,17.673,14.327,32,32,32
			c17.674,0,32-14.327,32-32C63.932,14.322,49.605-0.004,31.932-0.004L31.932-0.004z"/>
	</g>
	
		<rect x="9.303" y="9.296" display="inline" fill="none" stroke="#000000" stroke-width="0.25" stroke-miterlimit="10" width="45.329" height="45.333"/>
	
		<rect x="11.389" y="11.383" display="inline" fill="none" stroke="#000000" stroke-width="0.25" stroke-miterlimit="10" width="41.156" height="41.16"/>
	
		<rect x="9.303" y="9.296" display="inline" fill="none" stroke="#000000" stroke-width="0.25" stroke-miterlimit="10" width="45.329" height="45.333"/>
	
		<rect x="9.301" y="9.299" transform="matrix(-0.7071 -0.7071 0.7071 -0.7071 31.9705 77.1702)" display="inline" fill="none" stroke="#000000" stroke-width="0.25" stroke-miterlimit="10" width="45.333" height="45.329"/>
	
		<rect x="11.388" y="11.385" transform="matrix(-0.7071 -0.7071 0.7071 -0.7071 31.9701 77.1694)" display="inline" fill="none" stroke="#000000" stroke-width="0.25" stroke-miterlimit="10" width="41.16" height="41.156"/>
	
		<rect x="9.301" y="9.299" transform="matrix(-0.7071 -0.7071 0.7071 -0.7071 31.9705 77.1702)" display="inline" fill="none" stroke="#000000" stroke-width="0.25" stroke-miterlimit="10" width="45.333" height="45.329"/>
	
		<rect x="22.483" y="4.67" display="inline" fill="none" stroke="#000000" stroke-width="0.25" stroke-miterlimit="10" width="18.968" height="54.585"/>
	
		<rect x="23.408" y="8.365" display="inline" fill="none" stroke="#000000" stroke-width="0.25" stroke-miterlimit="10" width="17.117" height="47.195"/>
	
		<rect x="22.483" y="4.67" display="inline" fill="none" stroke="#000000" stroke-width="0.25" stroke-miterlimit="10" width="18.968" height="54.585"/>
</g>
<g id="Layer_2" display="none">
	<polyline display="inline" fill="none" stroke="#1C588E" stroke-linecap="round" stroke-miterlimit="10" points="36.696,43.331 
		22.205,34.224 7.716,34.224 	"/>
	<path display="inline" fill="none" stroke="#1C588E" stroke-miterlimit="10" d="M51.188,28.837c0,8.001-6.486,14.494-14.491,14.494
		"/>
	<path display="inline" fill="none" stroke="#CD632E" stroke-linecap="round" stroke-linejoin="round" stroke-miterlimit="10" d="
		M58.951,28.767h-7.764c0-8-6.486-13.146-14.491-13.146v27.711L22.205,15.62L7.716,43.331"/>
	<path display="inline" fill="none" stroke="#1C588E" stroke-miterlimit="10" d="M36.696,43.331"/>
	<circle display="inline" fill="#FFFFFF" stroke="#CD632E" stroke-miterlimit="10" cx="22.205" cy="15.62" r="1.688"/>
	<circle display="inline" fill="#FFFFFF" stroke="#1C588E" stroke-miterlimit="10" cx="7.716" cy="34.224" r="1.688"/>
	<path display="inline" fill="#FFFFFF" stroke="#CD632E" stroke-miterlimit="10" d="M9.404,43.331c0,0.932-0.758,1.686-1.688,1.686
		c-0.934,0-1.688-0.754-1.688-1.686c0-0.937,0.755-1.688,1.688-1.688C8.646,41.643,9.404,42.395,9.404,43.331z"/>
	<path display="inline" fill="#FFFFFF" stroke="#CD632E" stroke-miterlimit="10" d="M38.385,43.331c0,0.932-0.757,1.686-1.688,1.686
		c-0.934,0-1.689-0.754-1.689-1.686c0-0.937,0.756-1.688,1.689-1.688C37.628,41.643,38.385,42.395,38.385,43.331z"/>
	<circle display="inline" fill="#FFFFFF" stroke="#CD632E" stroke-miterlimit="10" cx="36.696" cy="15.62" r="1.689"/>
	<circle display="inline" fill="#FFFFFF" stroke="#CD632E" stroke-miterlimit="10" cx="58.95" cy="28.837" r="1.689"/>
	<circle display="inline" fill="#FFFFFF" stroke="#1C588E" stroke-miterlimit="10" cx="22.205" cy="34.224" r="1.688"/>
	<circle display="inline" fill="#FFFFFF" stroke="#1C588E" stroke-miterlimit="10" cx="51.189" cy="28.837" r="1.689"/>
	
		<polyline display="inline" fill="none" stroke="#CD632E" stroke-linecap="round" stroke-linejoin="round" stroke-miterlimit="10" points="
		-9.679,44.77 -24.17,17.059 -38.66,44.77 	"/>
	<circle display="inline" fill="#FFFFFF" stroke="#CD632E" stroke-miterlimit="10" cx="-24.17" cy="17.059" r="1.688"/>
</g>
<g id="Layer_3" display="none">
	
		<polyline display="inline" fill="none" stroke="#000000" stroke-width="1.5" stroke-linecap="round" stroke-linejoin="round" stroke-miterlimit="10" points="
		40.525,40.546 22.951,22.835 11.387,43.899 	"/>
	
		<circle display="inline" fill="#FFFFFF" stroke="#000000" stroke-width="1.5" stroke-miterlimit="10" cx="22.951" cy="22.835" r="1.688"/>
	
		<circle display="inline" fill="#FFFFFF" stroke="#000000" stroke-width="1.5" stroke-miterlimit="10" cx="11.387" cy="43.898" r="1.688"/>
	
		<line display="inline" fill="none" stroke="#000000" stroke-width="1.5" stroke-miterlimit="10" x1="40.525" y1="40.546" x2="52.547" y2="20.351"/>
	
		<circle display="inline" fill="#FFFFFF" stroke="#000000" stroke-width="1.5" stroke-miterlimit="10" cx="40.525" cy="40.523" r="1.688"/>
	
		<circle display="inline" fill="#FFFFFF" stroke="#000000" stroke-width="1.5" stroke-miterlimit="10" cx="52.547" cy="20.351" r="1.688"/>
</g>
<g id="Layer_4" display="none">
	<polygon display="inline" stroke="#000000" stroke-width="1.5" stroke-miterlimit="10" points="52.58,21.674 40.559,40.546 
		22.984,22.835 11.42,43.899 52.58,43.899 	"/>
	
		<polyline display="inline" fill="none" stroke="#000000" stroke-width="1.5" stroke-linecap="round" stroke-linejoin="round" stroke-miterlimit="10" points="
		40.525,40.546 22.951,22.835 11.387,43.899 	"/>
	
		<circle display="inline" fill="#FFFFFF" stroke="#000000" stroke-width="1.5" stroke-miterlimit="10" cx="22.951" cy="22.835" r="1.688"/>
	
		<circle display="inline" fill="#FFFFFF" stroke="#000000" stroke-width="1.5" stroke-miterlimit="10" cx="11.387" cy="43.898" r="1.688"/>
	
		<line display="inline" fill="none" stroke="#000000" stroke-width="1.5" stroke-miterlimit="10" x1="40.525" y1="40.546" x2="52.547" y2="20.351"/>
	
		<circle display="inline" fill="#FFFFFF" stroke="#000000" stroke-width="1.5" stroke-miterlimit="10" cx="40.525" cy="40.523" r="1.688"/>
	
		<circle display="inline" fill="#FFFFFF" stroke="#000000" stroke-width="1.5" stroke-miterlimit="10" cx="52.547" cy="20.351" r="1.688"/>
</g>
<g id="Layer_5" display="none">
	<line display="inline" fill="none" stroke="#000000" stroke-miterlimit="10" x1="23.176" y1="14.958" x2="23.176" y2="29.202"/>
	<line display="inline" fill="none" stroke="#000000" stroke-miterlimit="10" x1="25.176" y1="16.958" x2="25.176" y2="31.202"/>
	<line display="inline" fill="none" stroke="#000000" stroke-miterlimit="10" x1="27.176" y1="18.958" x2="27.176" y2="33.201"/>
	<line display="inline" fill="none" stroke="#000000" stroke-miterlimit="10" x1="29.176" y1="20.958" x2="29.176" y2="35.202"/>
	<line display="inline" fill="none" stroke="#000000" stroke-miterlimit="10" x1="31.176" y1="22.958" x2="31.176" y2="37.202"/>
	<line display="inline" fill="none" stroke="#000000" stroke-miterlimit="10" x1="33.176" y1="24.958" x2="33.176" y2="39.202"/>
	<line display="inline" fill="none" stroke="#000000" stroke-miterlimit="10" x1="35.176" y1="26.958" x2="35.176" y2="41.202"/>
	<line display="inline" fill="none" stroke="#000000" stroke-miterlimit="10" x1="37.176" y1="29.958" x2="37.176" y2="44.202"/>
	<line display="inline" fill="none" stroke="#000000" stroke-miterlimit="10" x1="39.176" y1="31.958" x2="39.176" y2="46.202"/>
	<line display="inline" fill="none" stroke="#000000" stroke-miterlimit="10" x1="43.176" y1="29.958" x2="43.176" y2="44.202"/>
	<line display="inline" fill="none" stroke="#000000" stroke-miterlimit="10" x1="47.176" y1="23.958" x2="47.176" y2="38.202"/>
	<line display="inline" fill="none" stroke="#000000" stroke-miterlimit="10" x1="49.176" y1="20.542" x2="49.176" y2="34.786"/>
	<polygon display="inline" stroke="#000000" stroke-width="1.5" stroke-miterlimit="10" points="52.58,26.674 40.559,45.546 
		22.984,27.835 11.42,48.899 52.58,48.899 	"/>
	
		<polyline display="inline" fill="none" stroke="#000000" stroke-width="1.5" stroke-linecap="round" stroke-linejoin="round" stroke-miterlimit="10" points="
		40.525,45.546 22.951,27.835 11.387,48.899 	"/>
	
		<circle display="inline" fill="#FFFFFF" stroke="#000000" stroke-width="1.5" stroke-miterlimit="10" cx="22.951" cy="27.835" r="1.688"/>
	
		<line display="inline" fill="none" stroke="#000000" stroke-width="1.5" stroke-miterlimit="10" x1="40.525" y1="45.546" x2="52.547" y2="25.351"/>
	
		<circle display="inline" fill="#FFFFFF" stroke="#000000" stroke-width="1.5" stroke-miterlimit="10" cx="40.525" cy="45.523" r="1.688"/>
	
		<polyline display="inline" fill="none" stroke="#000000" stroke-width="1.5" stroke-linejoin="round" stroke-miterlimit="10" points="
		11.387,48.898 22.951,13.994 40.525,33.523 52.547,14.994 52.547,25.351 	"/>
	
		<circle display="inline" fill="#FFFFFF" stroke="#000000" stroke-width="1.5" stroke-miterlimit="10" cx="11.387" cy="48.898" r="1.688"/>
	
		<circle display="inline" fill="#FFFFFF" stroke="#000000" stroke-width="1.5" stroke-miterlimit="10" cx="52.547" cy="25.351" r="1.688"/>
	
		<circle display="inline" fill="#FFFFFF" stroke="#000000" stroke-width="1.5" stroke-miterlimit="10" cx="22.951" cy="13.994" r="1.688"/>
	
		<circle display="inline" fill="#FFFFFF" stroke="#000000" stroke-width="1.5" stroke-miterlimit="10" cx="40.525" cy="33.523" r="1.688"/>
	
		<circle display="inline" fill="#FFFFFF" stroke="#000000" stroke-width="1.5" stroke-miterlimit="10" cx="52.547" cy="14.994" r="1.688"/>
	<line display="inline" fill="none" stroke="#000000" stroke-miterlimit="10" x1="17.176" y1="31.958" x2="17.176" y2="41.202"/>
	<line display="inline" fill="none" stroke="#000000" stroke-miterlimit="10" x1="19.176" y1="25.796" x2="19.176" y2="36.202"/>
	<line display="inline" fill="none" stroke="#000000" stroke-miterlimit="10" x1="21.176" y1="19.958" x2="21.176" y2="27.957"/>
	<line display="inline" fill="none" stroke="#000000" stroke-miterlimit="10" x1="41.176" y1="34.958" x2="41.176" y2="44.202"/>
	<line display="inline" fill="none" stroke="#000000" stroke-miterlimit="10" x1="45.176" y1="26.958" x2="45.176" y2="37.733"/>
	<line display="inline" fill="none" stroke="#000000" stroke-miterlimit="10" x1="50.858" y1="18.102" x2="50.858" y2="24.562"/>
</g>
<g id="Layer_6" display="none">
	<rect x="9.326" y="33.391" display="inline" width="13.157" height="13.117"/>
	<rect x="25.389" y="25.654" display="inline" width="13.157" height="20.889"/>
	<rect x="41.451" y="21.367" display="inline" width="13.157" height="25.176"/>
	<g display="inline">
		<rect x="9.817" y="33.891" fill="#FFFFFF" width="12.177" height="4.655"/>
		<path d="M21.494,34.391v3.655H10.317v-3.655H21.494 M22.494,33.391H9.317v5.655h13.177V33.391L22.494,33.391z"/>
	</g>
	<g display="inline">
		<rect x="25.889" y="26.154" fill="#FFFFFF" width="12.157" height="8.883"/>
		<path d="M37.546,26.654v7.883H26.389v-7.883H37.546 M38.546,25.654H25.389v9.883h13.157V25.654L38.546,25.654z"/>
	</g>
	<g display="inline">
		<rect x="41.951" y="21.867" fill="#FFFFFF" width="12.157" height="16.615"/>
		<path d="M53.608,22.367v15.615H42.451V22.367H53.608 M54.608,21.367H41.451v17.615h13.157V21.367L54.608,21.367z"/>
	</g>
	<line display="inline" fill="none" stroke="#000000" stroke-miterlimit="10" x1="11.905" y1="33.391" x2="11.905" y2="39.046"/>
	<line display="inline" fill="none" stroke="#000000" stroke-miterlimit="10" x1="13.905" y1="33.391" x2="13.905" y2="39.046"/>
	<line display="inline" fill="none" stroke="#000000" stroke-miterlimit="10" x1="15.905" y1="33.391" x2="15.905" y2="39.046"/>
	<line display="inline" fill="none" stroke="#000000" stroke-miterlimit="10" x1="17.905" y1="33.391" x2="17.905" y2="39.046"/>
	<line display="inline" fill="none" stroke="#000000" stroke-miterlimit="10" x1="19.905" y1="33.391" x2="19.905" y2="39.046"/>
	<line display="inline" fill="none" stroke="#000000" stroke-miterlimit="10" x1="28" y1="25.712" x2="28" y2="35.367"/>
	<line display="inline" fill="none" stroke="#000000" stroke-miterlimit="10" x1="30" y1="25.712" x2="30" y2="35.367"/>
	<line display="inline" fill="none" stroke="#000000" stroke-miterlimit="10" x1="32" y1="25.712" x2="32" y2="35.367"/>
	<line display="inline" fill="none" stroke="#000000" stroke-miterlimit="10" x1="34" y1="25.712" x2="34" y2="35.367"/>
	<line display="inline" fill="none" stroke="#000000" stroke-miterlimit="10" x1="36" y1="25.712" x2="36" y2="35.367"/>
	<line display="inline" fill="none" stroke="#000000" stroke-miterlimit="10" x1="44" y1="21.367" x2="44" y2="42.022"/>
	<line display="inline" fill="none" stroke="#000000" stroke-miterlimit="10" x1="46" y1="21.367" x2="46" y2="42.022"/>
	<line display="inline" fill="none" stroke="#000000" stroke-miterlimit="10" x1="48" y1="21.367" x2="48" y2="42.022"/>
	<line display="inline" fill="none" stroke="#000000" stroke-miterlimit="10" x1="50" y1="21.367" x2="50" y2="42.022"/>
	<line display="inline" fill="none" stroke="#000000" stroke-miterlimit="10" x1="52" y1="21.367" x2="52" y2="42.022"/>
	<g display="inline">
		<rect x="9.817" y="19.268" fill="#FFFFFF" width="12.177" height="14.656"/>
		<path d="M21.494,19.768v13.656H10.317V19.768H21.494 M22.494,18.768H9.317v15.656h13.177V18.768L22.494,18.768z"/>
	</g>
	<g display="inline">
		<rect x="25.889" y="13.213" fill="#FFFFFF" width="12.157" height="12.883"/>
		<path d="M37.546,13.713v11.883H26.389V13.713H37.546 M38.546,12.713H25.389v13.883h13.157V12.713L38.546,12.713z"/>
	</g>
	<g display="inline">
		<rect x="41.951" y="18" fill="#FFFFFF" width="12.157" height="3.883"/>
		<path d="M53.608,18.5v2.883H42.451V18.5H53.608 M54.608,17.5H41.451v4.883h13.157V17.5L54.608,17.5z"/>
	</g>
</g>
<g id="Layer_7" display="none">
	<g display="inline">
		<rect x="41.451" y="23.367" width="13.157" height="23.176"/>
	</g>
	<polygon display="inline" points="20.405,19.391 19.405,19.391 18.405,19.391 17.405,19.391 16.405,19.391 15.405,19.391 
		14.405,19.391 13.405,19.391 12.405,19.391 11.405,19.391 9.326,19.391 9.326,46.508 22.483,46.508 22.483,19.391 	"/>
	<rect x="25.389" y="30.654" display="inline" width="13.157" height="15.889"/>
</g>
<g id="Layer_8">
	<g>
		<path d="M54.633,32.375H9.303c-0.414,0-0.75-0.336-0.75-0.75s0.336-0.75,0.75-0.75h45.33c0.414,0,0.75,0.336,0.75,0.75
			S55.047,32.375,54.633,32.375z"/>
	</g>
	<g>
		<path d="M31.968,55.04c-0.414,0-0.75-0.336-0.75-0.75V8.96c0-0.414,0.336-0.75,0.75-0.75s0.75,0.336,0.75,0.75v45.33
			C32.718,54.704,32.382,55.04,31.968,55.04z"/>
	</g>
	<g>
		<path d="M41.449,26.101c-2.155,0-3.908-1.754-3.908-3.91s1.753-3.909,3.908-3.909c2.157,0,3.912,1.753,3.912,3.909
			S43.606,26.101,41.449,26.101z M41.449,19.782c-1.328,0-2.408,1.081-2.408,2.409s1.08,2.41,2.408,2.41
			c1.33,0,2.412-1.081,2.412-2.41S42.779,19.782,41.449,19.782z"/>
	</g>
	<g>
		<path d="M22.481,45.357c-2.155,0-3.908-1.754-3.908-3.91c0-2.155,1.753-3.909,3.908-3.909c2.157,0,3.912,1.754,3.912,3.909
			C26.394,43.604,24.639,45.357,22.481,45.357z M22.481,39.038c-1.328,0-2.408,1.081-2.408,2.409c0,1.329,1.08,2.41,2.408,2.41
			c1.33,0,2.412-1.081,2.412-2.41C24.894,40.119,23.812,39.038,22.481,39.038z"/>
	</g>
</g>
<g id="Layer_9" display="none">
	<g display="inline">
		<path d="M50.945,42.688h-35.33c-0.414,0-0.75-0.336-0.75-0.75s0.336-0.75,0.75-0.75h35.33c0.414,0,0.75,0.336,0.75,0.75
			S51.359,42.688,50.945,42.688z"/>
	</g>
	<g display="inline">
		<path d="M21.812,49.04c-0.414,0-0.75-0.336-0.75-0.75V11.96c0-0.414,0.336-0.75,0.75-0.75s0.75,0.336,0.75,0.75v36.33
			C22.562,48.704,22.227,49.04,21.812,49.04z"/>
	</g>
	<g display="inline">
		<path d="M19.812,13.688h-4.197c-0.414,0-0.75-0.336-0.75-0.75s0.336-0.75,0.75-0.75h4.197c0.414,0,0.75,0.336,0.75,0.75
			S20.227,13.688,19.812,13.688z"/>
	</g>
	<g display="inline">
		<path d="M19.812,19.688h-4.197c-0.414,0-0.75-0.336-0.75-0.75s0.336-0.75,0.75-0.75h4.197c0.414,0,0.75,0.336,0.75,0.75
			S20.227,19.688,19.812,19.688z"/>
	</g>
	<g display="inline">
		<path d="M19.812,25.688h-4.197c-0.414,0-0.75-0.336-0.75-0.75s0.336-0.75,0.75-0.75h4.197c0.414,0,0.75,0.336,0.75,0.75
			S20.227,25.688,19.812,25.688z"/>
	</g>
	<g display="inline">
		<path d="M19.812,31.688h-4.197c-0.414,0-0.75-0.336-0.75-0.75s0.336-0.75,0.75-0.75h4.197c0.414,0,0.75,0.336,0.75,0.75
			S20.227,31.688,19.812,31.688z"/>
	</g>
	<g display="inline">
		<path d="M19.812,37.688h-4.197c-0.414,0-0.75-0.336-0.75-0.75s0.336-0.75,0.75-0.75h4.197c0.414,0,0.75,0.336,0.75,0.75
			S20.227,37.688,19.812,37.688z"/>
	</g>
	<g display="inline">
		<path d="M26.25,49.04c-0.414,0-0.75-0.336-0.75-0.75v-4.197c0-0.414,0.336-0.75,0.75-0.75S27,43.679,27,44.093v4.197
			C27,48.704,26.664,49.04,26.25,49.04z"/>
	</g>
	<g display="inline">
		<path d="M32.25,49.04c-0.414,0-0.75-0.336-0.75-0.75v-4.197c0-0.414,0.336-0.75,0.75-0.75S33,43.679,33,44.093v4.197
			C33,48.704,32.664,49.04,32.25,49.04z"/>
	</g>
	<g display="inline">
		<path d="M38.25,49.04c-0.414,0-0.75-0.336-0.75-0.75v-4.197c0-0.414,0.336-0.75,0.75-0.75S39,43.679,39,44.093v4.197
			C39,48.704,38.664,49.04,38.25,49.04z"/>
	</g>
	<g display="inline">
		<path d="M44.25,49.04c-0.414,0-0.75-0.336-0.75-0.75v-4.197c0-0.414,0.336-0.75,0.75-0.75S45,43.679,45,44.093v4.197
			C45,48.704,44.664,49.04,44.25,49.04z"/>
	</g>
	<g display="inline">
		<path d="M50.25,49.04c-0.414,0-0.75-0.336-0.75-0.75v-4.197c0-0.414,0.336-0.75,0.75-0.75S51,43.679,51,44.093v4.197
			C51,48.704,50.664,49.04,50.25,49.04z"/>
	</g>
</g>
<g id="Layer_10" display="none">
	<g display="inline">
		<path d="M33.439,41.056c0,0.96-0.42,1.5-1.5,1.5c-1.08,0-1.5-0.54-1.5-1.5v-9.6l-5.91-7.68v-3.06c0-0.96,0.42-1.5,1.5-1.5
			c1.08,0,1.5,0.54,1.5,1.5v2.04l4.41,5.73l4.41-5.73v-2.04c0-0.96,0.42-1.5,1.5-1.5s1.5,0.54,1.5,1.5v3.06l-5.91,7.68V41.056z"/>
	</g>
</g>
<g id="Layer_11" display="none">
	<g display="inline">
		<path d="M30.222,30.699l-5.34-9.18c-0.21-0.33-0.36-0.66-0.36-1.08c0-0.78,0.72-1.41,1.47-1.41c0.99,0,1.32,0.75,1.74,1.47
			l4.2,7.17l4.2-7.17c0.42-0.72,0.75-1.47,1.74-1.47c0.75,0,1.47,0.63,1.47,1.41c0,0.42-0.15,0.75-0.36,1.08l-5.34,9.18l5.34,9.18
			c0.21,0.329,0.36,0.659,0.36,1.079c0,0.78-0.72,1.41-1.47,1.41c-0.99,0-1.32-0.75-1.74-1.47l-4.2-7.17l-4.2,7.17
			c-0.42,0.72-0.75,1.47-1.74,1.47c-0.75,0-1.47-0.63-1.47-1.41c0-0.42,0.15-0.75,0.36-1.079L30.222,30.699z"/>
	</g>
</g>
</svg>
