<?xml version="1.0" encoding="utf-8"?>
<!-- Generator: Adobe Illustrator 16.0.4, SVG Export Plug-In . SVG Version: 6.00 Build 0)  -->
<!DOCTYPE svg PUBLIC "-//W3C//DTD SVG 1.1//EN" "http://www.w3.org/Graphics/SVG/1.1/DTD/svg11.dtd">
<svg version="1.1" id="Layer_1" xmlns="http://www.w3.org/2000/svg" xmlns:xlink="http://www.w3.org/1999/xlink" x="0px" y="0px"
	 width="64px" height="64px" viewBox="0 0 64 64" enable-background="new 0 0 64 64" xml:space="preserve">
<polygon fill="none" stroke="#4C5156" stroke-width="2" stroke-miterlimit="10" points="9.264,40.828 9.264,47.945 18.271,47.945 
	18.271,40.828 "/>
<line fill="none" stroke="#4C5156" stroke-width="2" stroke-miterlimit="10" x1="12.271" y1="47.188" x2="12.271" y2="40.812"/>
<line fill="none" stroke="#4C5156" stroke-width="2" stroke-miterlimit="10" x1="15.271" y1="47.188" x2="15.271" y2="41.188"/>
<polygon fill="none" stroke="#1F85C4" stroke-width="2" stroke-miterlimit="10" points="9.264,20.724 9.264,37.841 18.271,37.841 
	18.271,20.724 "/>
<line fill="none" stroke="#1F85C4" stroke-width="2" stroke-miterlimit="10" x1="12.271" y1="37.083" x2="12.271" y2="20.708"/>
<line fill="none" stroke="#1F85C4" stroke-width="2" stroke-miterlimit="10" x1="15.271" y1="37.083" x2="15.271" y2="21.083"/>
<polygon fill="none" stroke="#4C5156" stroke-width="2" stroke-miterlimit="10" points="21.889,32.828 21.889,47.945 30.896,47.945 
	30.896,32.828 "/>
<line fill="none" stroke="#4C5156" stroke-width="2" stroke-miterlimit="10" x1="24.896" y1="47.188" x2="24.896" y2="32.812"/>
<line fill="none" stroke="#4C5156" stroke-width="2" stroke-miterlimit="10" x1="27.896" y1="47.188" x2="27.896" y2="33.188"/>
<polygon fill="none" stroke="#1F85C4" stroke-width="2" stroke-miterlimit="10" points="21.889,16.724 21.889,29.841 30.896,29.841 
	30.896,16.724 "/>
<line fill="none" stroke="#1F85C4" stroke-width="2" stroke-miterlimit="10" x1="24.896" y1="29.083" x2="24.896" y2="16.708"/>
<line fill="none" stroke="#1F85C4" stroke-width="2" stroke-miterlimit="10" x1="27.896" y1="29.083" x2="27.896" y2="17.083"/>
<polygon fill="none" stroke="#4C5156" stroke-width="2" stroke-miterlimit="10" points="34.264,36.828 34.264,47.945 43.271,47.945 
	43.271,36.828 "/>
<line fill="none" stroke="#4C5156" stroke-width="2" stroke-miterlimit="10" x1="37.271" y1="47.188" x2="37.271" y2="36.812"/>
<line fill="none" stroke="#4C5156" stroke-width="2" stroke-miterlimit="10" x1="40.271" y1="47.188" x2="40.271" y2="37.188"/>
<polygon fill="none" stroke="#1F85C4" stroke-width="2" stroke-miterlimit="10" points="34.264,24.724 34.264,33.841 43.271,33.841 
	43.271,24.724 "/>
<line fill="none" stroke="#1F85C4" stroke-width="2" stroke-miterlimit="10" x1="37.271" y1="33.083" x2="37.271" y2="24.708"/>
<line fill="none" stroke="#1F85C4" stroke-width="2" stroke-miterlimit="10" x1="40.271" y1="33.083" x2="40.271" y2="25.083"/>
<polygon fill="none" stroke="#4C5156" stroke-width="2" stroke-miterlimit="10" points="46.639,39.828 46.639,47.945 55.646,47.945 
	55.646,39.828 "/>
<line fill="none" stroke="#4C5156" stroke-width="2" stroke-miterlimit="10" x1="49.646" y1="47.188" x2="49.646" y2="39.812"/>
<line fill="none" stroke="#4C5156" stroke-width="2" stroke-miterlimit="10" x1="52.646" y1="47.188" x2="52.646" y2="40.188"/>
<polygon fill="none" stroke="#1F85C4" stroke-width="2" stroke-miterlimit="10" points="46.639,21.724 46.639,36.841 55.646,36.841 
	55.646,21.724 "/>
<line fill="none" stroke="#1F85C4" stroke-width="2" stroke-miterlimit="10" x1="49.646" y1="36.083" x2="49.646" y2="21.708"/>
<line fill="none" stroke="#1F85C4" stroke-width="2" stroke-miterlimit="10" x1="52.646" y1="36.083" x2="52.646" y2="22.083"/>
</svg>
