<?xml version="1.0" encoding="utf-8"?>
<!-- Generator: Adobe Illustrator 16.0.1, SVG Export Plug-In . SVG Version: 6.00 Build 0)  -->
<!DOCTYPE svg PUBLIC "-//W3C//DTD SVG 1.1//EN" "http://www.w3.org/Graphics/SVG/1.1/DTD/svg11.dtd">
<svg version="1.1" xmlns="http://www.w3.org/2000/svg" xmlns:xlink="http://www.w3.org/1999/xlink" x="0px" y="0px" width="64px"
	 height="64px" viewBox="0 0 64 64" enable-background="new 0 0 64 64" xml:space="preserve">
<g id="Layer_1" display="none">
	<g display="inline" opacity="0.2">
		<path d="M32,3c15.99,0,29,13.01,29,29c0,15.99-13.01,29-29,29C16.009,61,3,47.99,3,32C3,16.009,16.009,3,32,3 M32,0
			C14.326,0,0,14.326,0,32c0,17.673,14.327,32,32,32c17.673,0,32-14.327,32-32C64,14.326,49.673,0,32,0L32,0z"/>
	</g>
	
		<rect x="9.3" y="9.3" display="inline" fill="none" stroke="#000000" stroke-width="0.25" stroke-miterlimit="10" width="45.333" height="45.329"/>
	
		<rect x="11.387" y="11.386" display="inline" fill="none" stroke="#000000" stroke-width="0.25" stroke-miterlimit="10" width="41.16" height="41.157"/>
	
		<rect x="9.3" y="9.3" display="inline" fill="none" stroke="#000000" stroke-width="0.25" stroke-miterlimit="10" width="45.333" height="45.329"/>
	
		<rect x="9.302" y="9.299" transform="matrix(-0.7071 0.7071 -0.7071 -0.7071 77.1744 31.9612)" display="inline" fill="none" stroke="#000000" stroke-width="0.25" stroke-miterlimit="10" width="45.333" height="45.329"/>
	
		<rect x="11.387" y="11.386" transform="matrix(-0.7071 0.7071 -0.7071 -0.7071 77.1736 31.9619)" display="inline" fill="none" stroke="#000000" stroke-width="0.25" stroke-miterlimit="10" width="41.16" height="41.156"/>
	
		<rect x="9.302" y="9.299" transform="matrix(-0.7071 0.7071 -0.7071 -0.7071 77.1744 31.9612)" display="inline" fill="none" stroke="#000000" stroke-width="0.25" stroke-miterlimit="10" width="45.333" height="45.329"/>
	
		<rect x="4.674" y="22.48" display="inline" fill="none" stroke="#000000" stroke-width="0.25" stroke-miterlimit="10" width="54.585" height="18.968"/>
	
		<rect x="8.369" y="23.407" display="inline" fill="none" stroke="#000000" stroke-width="0.25" stroke-miterlimit="10" width="47.195" height="17.117"/>
	
		<rect x="4.674" y="22.48" display="inline" fill="none" stroke="#000000" stroke-width="0.25" stroke-miterlimit="10" width="54.585" height="18.968"/>
	<g display="inline" opacity="0.2">
		<path d="M31.932,2.996c15.99,0,29,13.01,29,29c0,15.99-13.01,29-29,29c-15.991,0-29-13.01-29-29
			C2.932,16.005,15.941,2.996,31.932,2.996 M31.932-0.004c-17.673,0-32,14.327-32,32c0,17.673,14.327,32,32,32
			c17.674,0,32-14.327,32-32C63.932,14.322,49.605-0.004,31.932-0.004L31.932-0.004z"/>
	</g>
	
		<rect x="9.303" y="9.296" display="inline" fill="none" stroke="#000000" stroke-width="0.25" stroke-miterlimit="10" width="45.329" height="45.333"/>
	
		<rect x="11.389" y="11.383" display="inline" fill="none" stroke="#000000" stroke-width="0.25" stroke-miterlimit="10" width="41.156" height="41.16"/>
	
		<rect x="9.303" y="9.296" display="inline" fill="none" stroke="#000000" stroke-width="0.25" stroke-miterlimit="10" width="45.329" height="45.333"/>
	
		<rect x="9.301" y="9.299" transform="matrix(-0.7071 -0.7071 0.7071 -0.7071 31.9705 77.1702)" display="inline" fill="none" stroke="#000000" stroke-width="0.25" stroke-miterlimit="10" width="45.333" height="45.329"/>
	
		<rect x="11.388" y="11.385" transform="matrix(-0.7071 -0.7071 0.7071 -0.7071 31.9701 77.1694)" display="inline" fill="none" stroke="#000000" stroke-width="0.25" stroke-miterlimit="10" width="41.16" height="41.156"/>
	
		<rect x="9.301" y="9.299" transform="matrix(-0.7071 -0.7071 0.7071 -0.7071 31.9705 77.1702)" display="inline" fill="none" stroke="#000000" stroke-width="0.25" stroke-miterlimit="10" width="45.333" height="45.329"/>
	
		<rect x="22.483" y="4.67" display="inline" fill="none" stroke="#000000" stroke-width="0.25" stroke-miterlimit="10" width="18.968" height="54.585"/>
	
		<rect x="23.408" y="8.365" display="inline" fill="none" stroke="#000000" stroke-width="0.25" stroke-miterlimit="10" width="17.117" height="47.195"/>
	
		<rect x="22.483" y="4.67" display="inline" fill="none" stroke="#000000" stroke-width="0.25" stroke-miterlimit="10" width="18.968" height="54.585"/>
</g>
<g id="Layer_2" display="none">
	<polyline display="inline" fill="none" stroke="#1C588E" stroke-linecap="round" stroke-miterlimit="10" points="36.696,43.331 
		22.205,34.224 7.716,34.224 	"/>
	<path display="inline" fill="none" stroke="#1C588E" stroke-miterlimit="10" d="M51.188,28.837c0,8.001-6.486,14.494-14.491,14.494
		"/>
	<path display="inline" fill="none" stroke="#CD632E" stroke-linecap="round" stroke-linejoin="round" stroke-miterlimit="10" d="
		M58.951,28.767h-7.764c0-8-6.486-13.146-14.491-13.146v27.711L22.205,15.62L7.716,43.331"/>
	<path display="inline" fill="none" stroke="#1C588E" stroke-miterlimit="10" d="M36.696,43.331"/>
	<circle display="inline" fill="#FFFFFF" stroke="#CD632E" stroke-miterlimit="10" cx="22.205" cy="15.62" r="1.688"/>
	<circle display="inline" fill="#FFFFFF" stroke="#1C588E" stroke-miterlimit="10" cx="7.716" cy="34.224" r="1.688"/>
	<path display="inline" fill="#FFFFFF" stroke="#CD632E" stroke-miterlimit="10" d="M9.404,43.331c0,0.932-0.758,1.686-1.688,1.686
		c-0.934,0-1.688-0.754-1.688-1.686c0-0.937,0.755-1.688,1.688-1.688C8.646,41.643,9.404,42.395,9.404,43.331z"/>
	<path display="inline" fill="#FFFFFF" stroke="#CD632E" stroke-miterlimit="10" d="M38.385,43.331c0,0.932-0.757,1.686-1.688,1.686
		c-0.934,0-1.689-0.754-1.689-1.686c0-0.937,0.756-1.688,1.689-1.688C37.628,41.643,38.385,42.395,38.385,43.331z"/>
	<circle display="inline" fill="#FFFFFF" stroke="#CD632E" stroke-miterlimit="10" cx="36.696" cy="15.62" r="1.689"/>
	<circle display="inline" fill="#FFFFFF" stroke="#CD632E" stroke-miterlimit="10" cx="58.95" cy="28.837" r="1.689"/>
	<circle display="inline" fill="#FFFFFF" stroke="#1C588E" stroke-miterlimit="10" cx="22.205" cy="34.224" r="1.688"/>
	<circle display="inline" fill="#FFFFFF" stroke="#1C588E" stroke-miterlimit="10" cx="51.189" cy="28.837" r="1.689"/>
	
		<polyline display="inline" fill="none" stroke="#CD632E" stroke-linecap="round" stroke-linejoin="round" stroke-miterlimit="10" points="
		-9.679,44.77 -24.17,17.059 -38.66,44.77 	"/>
	<circle display="inline" fill="#FFFFFF" stroke="#CD632E" stroke-miterlimit="10" cx="-24.17" cy="17.059" r="1.688"/>
</g>
<g id="Layer_3" display="none">
	
		<polyline display="inline" fill="none" stroke="#000000" stroke-width="1.5" stroke-linecap="round" stroke-linejoin="round" stroke-miterlimit="10" points="
		40.525,40.546 22.951,22.835 11.387,43.899 	"/>
	
		<circle display="inline" fill="#FFFFFF" stroke="#000000" stroke-width="1.5" stroke-miterlimit="10" cx="22.951" cy="22.835" r="1.688"/>
	
		<circle display="inline" fill="#FFFFFF" stroke="#000000" stroke-width="1.5" stroke-miterlimit="10" cx="11.387" cy="43.898" r="1.688"/>
	
		<line display="inline" fill="none" stroke="#000000" stroke-width="1.5" stroke-miterlimit="10" x1="40.525" y1="40.546" x2="52.547" y2="20.351"/>
	
		<circle display="inline" fill="#FFFFFF" stroke="#000000" stroke-width="1.5" stroke-miterlimit="10" cx="40.525" cy="40.523" r="1.688"/>
	
		<circle display="inline" fill="#FFFFFF" stroke="#000000" stroke-width="1.5" stroke-miterlimit="10" cx="52.547" cy="20.351" r="1.688"/>
</g>
<g id="Layer_4" display="none">
	<polygon display="inline" stroke="#000000" stroke-width="1.5" stroke-miterlimit="10" points="52.58,21.674 40.559,40.546 
		22.984,22.835 11.42,43.899 52.58,43.899 	"/>
	
		<polyline display="inline" fill="none" stroke="#000000" stroke-width="1.5" stroke-linecap="round" stroke-linejoin="round" stroke-miterlimit="10" points="
		40.525,40.546 22.951,22.835 11.387,43.899 	"/>
	
		<circle display="inline" fill="#FFFFFF" stroke="#000000" stroke-width="1.5" stroke-miterlimit="10" cx="22.951" cy="22.835" r="1.688"/>
	
		<circle display="inline" fill="#FFFFFF" stroke="#000000" stroke-width="1.5" stroke-miterlimit="10" cx="11.387" cy="43.898" r="1.688"/>
	
		<line display="inline" fill="none" stroke="#000000" stroke-width="1.5" stroke-miterlimit="10" x1="40.525" y1="40.546" x2="52.547" y2="20.351"/>
	
		<circle display="inline" fill="#FFFFFF" stroke="#000000" stroke-width="1.5" stroke-miterlimit="10" cx="40.525" cy="40.523" r="1.688"/>
	
		<circle display="inline" fill="#FFFFFF" stroke="#000000" stroke-width="1.5" stroke-miterlimit="10" cx="52.547" cy="20.351" r="1.688"/>
</g>
<g id="Layer_5">
	<path d="M53.297,23.043v-5.742c0.977-0.319,1.688-1.227,1.688-2.307c0-1.344-1.095-2.438-2.439-2.438
		c-1.344,0-2.438,1.093-2.438,2.438c0,0.581,0.213,1.108,0.554,1.527l-9.509,14.657c-0.202-0.054-0.41-0.092-0.629-0.092
		c-0.353,0-0.687,0.079-0.989,0.215l-3.859-4.288v-0.055h-0.05L25.543,15.752c0.182-0.341,0.295-0.725,0.295-1.139
		c0-1.345-1.094-2.438-2.438-2.438s-2.438,1.093-2.438,2.438c0,0.555,0.193,1.061,0.507,1.471L11.403,46.463
		c-0.005,0-0.011-0.002-0.017-0.002c-1.345,0-2.438,1.094-2.438,2.438c0,1.345,1.094,2.438,2.438,2.438
		c1.344,0,2.438-1.093,2.438-2.438H52.58V27.785c1.329-0.019,2.405-1.102,2.405-2.434C54.985,24.27,54.273,23.362,53.297,23.043z
		 M22.676,17.212v8.213c-0.364,0.042-0.703,0.158-1,0.342V20.23L22.676,17.212z M40.524,35.961c0.052,0,0.101-0.012,0.151-0.016
		v7.156c-0.051-0.004-0.1-0.016-0.151-0.016c-0.3,0-0.583,0.062-0.849,0.161V35.8C39.941,35.899,40.225,35.961,40.524,35.961z
		 M47.676,32.456v-8.499h-0.051l1.051-1.619v8.339L47.676,32.456z M46.676,34.234l-1,1.777v-9.049l1-1.541V34.234z M44.708,37.733
		l-1.032,1.835v-9.523l1-1.541v9.229H44.708z M40.524,44.586c0.518,0,0.939,0.421,0.939,0.938s-0.422,0.938-0.939,0.938
		c-0.517,0-0.938-0.421-0.938-0.938S40.008,44.586,40.524,44.586z M41.676,43.124v-7.465c0.427-0.231,0.773-0.582,1-1.012v6.698
		L41.676,43.124z M42.676,32.399c-0.076-0.144-0.164-0.278-0.266-0.403l0.266-0.41V32.399z M38.676,35.094v7.523l-1-1.008V31.479
		l0.748,0.831c-0.209,0.359-0.337,0.77-0.337,1.214C38.087,34.124,38.313,34.668,38.676,35.094z M22.013,27.835
		c0-0.517,0.421-0.938,0.938-0.938s0.938,0.42,0.938,0.938c0,0.518-0.421,0.938-0.938,0.938S22.013,28.353,22.013,27.835z
		 M33.676,37.578V27.033l1,1.111v10.441L33.676,37.578z M32.676,36.57l-1-1.008V24.811l1,1.111V36.57z M30.676,34.555l-1-1.008
		V22.588l1,1.111V34.555z M28.676,32.54l-1-1.008V20.366l1,1.111V32.54z M26.676,30.524l-1-1.008V18.144l1,1.111V30.524z
		 M24.676,17.032v9.081c-0.275-0.275-0.62-0.474-1-0.594v-8.495c0.28-0.032,0.545-0.108,0.789-0.227L24.676,17.032z M20.676,26.979
		c-0.101,0.267-0.163,0.553-0.163,0.855c0,0.646,0.257,1.23,0.668,1.667l-1.505,2.742v-5.977l1-3.018V26.979z M18.676,34.064
		l-1,1.821v-3.583l1-3.018V34.064z M16.676,37.707l-1.995,3.634l1.995-6.021V37.707z M49.676,28.9v-8.103l0.683-1.052v4.551
		c-0.155,0.32-0.25,0.675-0.25,1.055c0,0.632,0.248,1.203,0.644,1.636L49.676,28.9z M51.358,18.204l0.438-0.676v5.515
		c-0.154,0.05-0.3,0.114-0.438,0.192V18.204z M52.546,14.057c0.518,0,0.939,0.42,0.939,0.938s-0.422,0.938-0.939,0.938
		c-0.517,0-0.938-0.42-0.938-0.938S52.029,14.057,52.546,14.057z M41.464,33.523c0,0.517-0.422,0.938-0.939,0.938
		c-0.378,0-0.7-0.228-0.849-0.551c-0.055-0.119-0.089-0.248-0.089-0.387s0.034-0.268,0.089-0.387
		c0.148-0.323,0.471-0.551,0.849-0.551C41.042,32.586,41.464,33.007,41.464,33.523z M36.676,30.367v10.234l-1-1.008V29.256
		L36.676,30.367z M23.4,13.676c0.518,0,0.938,0.421,0.938,0.938c0,0.23-0.093,0.434-0.23,0.597c-0.119,0.112-0.255,0.206-0.403,0.28
		c-0.097,0.034-0.197,0.062-0.305,0.062c-0.518,0-0.938-0.421-0.938-0.938C22.461,14.097,22.882,13.676,23.4,13.676z M11.387,49.837
		c-0.518,0-0.938-0.421-0.938-0.938c0-0.517,0.421-0.938,0.938-0.938s0.938,0.421,0.938,0.938
		C12.325,49.416,11.904,49.837,11.387,49.837z M52.562,26.285c-0.494-0.009-0.891-0.403-0.913-0.894l-0.024,0.043
		c-0.002-0.029-0.017-0.054-0.017-0.083c0-0.203,0.078-0.381,0.188-0.534v0.049c0.117-0.188,0.295-0.333,0.506-0.403
		c0.056-0.016,0.111-0.03,0.171-0.035c0.028-0.003,0.056-0.011,0.086-0.012c0.064,0.001,0.122,0.023,0.184,0.037
		c0.062,0.012,0.127,0.02,0.184,0.044c0.084,0.037,0.155,0.092,0.224,0.151c0.024,0.02,0.051,0.036,0.072,0.059
		c0.16,0.168,0.263,0.393,0.263,0.644C53.485,25.862,53.072,26.275,52.562,26.285z"/>
</g>
<g id="Layer_6" display="none">
	<path display="inline" d="M9.317,18.768v14.623v1.033v4.622h0.009v7.462h13.157v-7.462h0.011v-4.622v-1.033V18.768H9.317z
		 M21.494,19.768v13.623h-1.089h-1h-1h-1h-1h-1h-1h-1h-1h-1h-1.088V19.768H21.494z M10.317,34.424h1.088v3.622h-1.088V34.424z
		 M12.405,34.424h1v3.622h-1V34.424z M14.405,34.424h1v3.622h-1V34.424z M16.405,34.424h1v3.622h-1V34.424z M18.405,34.424h1v3.622
		h-1V34.424z M20.405,34.424h1.089v3.622h-1.089V34.424z"/>
	<path display="inline" d="M25.389,12.713v12.941v0.941v8.941v11.006h13.157V35.537v-8.941v-0.941V12.713H25.389z M35.5,34.537h-1
		v-7.883h1V34.537z M36.5,26.654h1.046v7.883H36.5V26.654z M29.5,26.654v7.883h-1v-7.883H29.5z M30.5,26.654h1v7.883h-1V26.654z
		 M32.5,26.654h1v7.883h-1V26.654z M26.389,26.654H27.5v7.883h-1.111V26.654z M26.389,13.713h11.157v11.883H26.389V13.713z"/>
	<path display="inline" d="M41.451,17.5v3.867v1.016v16.6v7.561h13.157v-7.561v-16.6v-1.016V17.5H41.451z M48.5,22.383h1v15.6h-1
		V22.383z M47.5,37.982h-1v-15.6h1V37.982z M45.5,22.383v15.6h-1v-15.6H45.5z M50.5,22.383h1v15.6h-1V22.383z M42.451,22.383H43.5
		v15.6h-1.049V22.383z M53.608,37.982H52.5v-15.6h1.108V37.982z M52.5,21.367h-1h-1h-1h-1h-1h-1h-1h-1h-1h-1.049V18.5h11.157v2.867
		H52.5z"/>
</g>
<g id="Layer_7" display="none">
	<g display="inline">
		<rect x="41.451" y="23.367" width="13.157" height="23.176"/>
	</g>
	<polygon display="inline" points="20.405,19.391 19.405,19.391 18.405,19.391 17.405,19.391 16.405,19.391 15.405,19.391 
		14.405,19.391 13.405,19.391 12.405,19.391 11.405,19.391 9.326,19.391 9.326,46.508 22.483,46.508 22.483,19.391 	"/>
	<rect x="25.389" y="30.654" display="inline" width="13.157" height="15.889"/>
</g>
<g id="Layer_8" display="none">
	<g display="inline">
		<path d="M54.633,32.375H9.303c-0.414,0-0.75-0.336-0.75-0.75s0.336-0.75,0.75-0.75h45.33c0.414,0,0.75,0.336,0.75,0.75
			S55.047,32.375,54.633,32.375z"/>
	</g>
	<g display="inline">
		<path d="M31.968,55.04c-0.414,0-0.75-0.336-0.75-0.75V8.96c0-0.414,0.336-0.75,0.75-0.75s0.75,0.336,0.75,0.75v45.33
			C32.718,54.704,32.382,55.04,31.968,55.04z"/>
	</g>
	<g display="inline">
		<path d="M41.449,26.101c-2.155,0-3.908-1.754-3.908-3.91s1.753-3.909,3.908-3.909c2.157,0,3.912,1.753,3.912,3.909
			S43.606,26.101,41.449,26.101z M41.449,19.782c-1.328,0-2.408,1.081-2.408,2.409s1.08,2.41,2.408,2.41
			c1.33,0,2.412-1.081,2.412-2.41S42.779,19.782,41.449,19.782z"/>
	</g>
	<g display="inline">
		<path d="M22.481,45.357c-2.155,0-3.908-1.754-3.908-3.91c0-2.155,1.753-3.909,3.908-3.909c2.157,0,3.912,1.754,3.912,3.909
			C26.394,43.604,24.639,45.357,22.481,45.357z M22.481,39.038c-1.328,0-2.408,1.081-2.408,2.409c0,1.329,1.08,2.41,2.408,2.41
			c1.33,0,2.412-1.081,2.412-2.41C24.894,40.119,23.812,39.038,22.481,39.038z"/>
	</g>
</g>
<g id="Layer_9" display="none">
	<g display="inline">
		<path d="M50.945,42.688h-35.33c-0.414,0-0.75-0.336-0.75-0.75s0.336-0.75,0.75-0.75h35.33c0.414,0,0.75,0.336,0.75,0.75
			S51.359,42.688,50.945,42.688z"/>
	</g>
	<g display="inline">
		<path d="M21.812,49.04c-0.414,0-0.75-0.336-0.75-0.75V11.96c0-0.414,0.336-0.75,0.75-0.75s0.75,0.336,0.75,0.75v36.33
			C22.562,48.704,22.227,49.04,21.812,49.04z"/>
	</g>
	<g display="inline">
		<path d="M19.812,13.688h-4.197c-0.414,0-0.75-0.336-0.75-0.75s0.336-0.75,0.75-0.75h4.197c0.414,0,0.75,0.336,0.75,0.75
			S20.227,13.688,19.812,13.688z"/>
	</g>
	<g display="inline">
		<path d="M19.812,19.688h-4.197c-0.414,0-0.75-0.336-0.75-0.75s0.336-0.75,0.75-0.75h4.197c0.414,0,0.75,0.336,0.75,0.75
			S20.227,19.688,19.812,19.688z"/>
	</g>
	<g display="inline">
		<path d="M19.812,25.688h-4.197c-0.414,0-0.75-0.336-0.75-0.75s0.336-0.75,0.75-0.75h4.197c0.414,0,0.75,0.336,0.75,0.75
			S20.227,25.688,19.812,25.688z"/>
	</g>
	<g display="inline">
		<path d="M19.812,31.688h-4.197c-0.414,0-0.75-0.336-0.75-0.75s0.336-0.75,0.75-0.75h4.197c0.414,0,0.75,0.336,0.75,0.75
			S20.227,31.688,19.812,31.688z"/>
	</g>
	<g display="inline">
		<path d="M19.812,37.688h-4.197c-0.414,0-0.75-0.336-0.75-0.75s0.336-0.75,0.75-0.75h4.197c0.414,0,0.75,0.336,0.75,0.75
			S20.227,37.688,19.812,37.688z"/>
	</g>
	<g display="inline">
		<path d="M26.25,49.04c-0.414,0-0.75-0.336-0.75-0.75v-4.197c0-0.414,0.336-0.75,0.75-0.75S27,43.679,27,44.093v4.197
			C27,48.704,26.664,49.04,26.25,49.04z"/>
	</g>
	<g display="inline">
		<path d="M32.25,49.04c-0.414,0-0.75-0.336-0.75-0.75v-4.197c0-0.414,0.336-0.75,0.75-0.75S33,43.679,33,44.093v4.197
			C33,48.704,32.664,49.04,32.25,49.04z"/>
	</g>
	<g display="inline">
		<path d="M38.25,49.04c-0.414,0-0.75-0.336-0.75-0.75v-4.197c0-0.414,0.336-0.75,0.75-0.75S39,43.679,39,44.093v4.197
			C39,48.704,38.664,49.04,38.25,49.04z"/>
	</g>
	<g display="inline">
		<path d="M44.25,49.04c-0.414,0-0.75-0.336-0.75-0.75v-4.197c0-0.414,0.336-0.75,0.75-0.75S45,43.679,45,44.093v4.197
			C45,48.704,44.664,49.04,44.25,49.04z"/>
	</g>
	<g display="inline">
		<path d="M50.25,49.04c-0.414,0-0.75-0.336-0.75-0.75v-4.197c0-0.414,0.336-0.75,0.75-0.75S51,43.679,51,44.093v4.197
			C51,48.704,50.664,49.04,50.25,49.04z"/>
	</g>
</g>
<g id="Layer_10" display="none">
	<g display="inline">
		<path d="M33.439,41.056c0,0.96-0.42,1.5-1.5,1.5c-1.08,0-1.5-0.54-1.5-1.5v-9.6l-5.91-7.68v-3.06c0-0.96,0.42-1.5,1.5-1.5
			c1.08,0,1.5,0.54,1.5,1.5v2.04l4.41,5.73l4.41-5.73v-2.04c0-0.96,0.42-1.5,1.5-1.5s1.5,0.54,1.5,1.5v3.06l-5.91,7.68V41.056z"/>
	</g>
</g>
<g id="Layer_11" display="none">
	<g display="inline">
		<path d="M30.222,30.699l-5.34-9.18c-0.21-0.33-0.36-0.66-0.36-1.08c0-0.78,0.72-1.41,1.47-1.41c0.99,0,1.32,0.75,1.74,1.47
			l4.2,7.17l4.2-7.17c0.42-0.72,0.75-1.47,1.74-1.47c0.75,0,1.47,0.63,1.47,1.41c0,0.42-0.15,0.75-0.36,1.08l-5.34,9.18l5.34,9.18
			c0.21,0.329,0.36,0.659,0.36,1.079c0,0.78-0.72,1.41-1.47,1.41c-0.99,0-1.32-0.75-1.74-1.47l-4.2-7.17l-4.2,7.17
			c-0.42,0.72-0.75,1.47-1.74,1.47c-0.75,0-1.47-0.63-1.47-1.41c0-0.42,0.15-0.75,0.36-1.079L30.222,30.699z"/>
	</g>
</g>
</svg>
