<?xml version="1.0" encoding="utf-8"?>
<!-- Generator: Adobe Illustrator 16.0.1, SVG Export Plug-In . SVG Version: 6.00 Build 0)  -->
<!DOCTYPE svg PUBLIC "-//W3C//DTD SVG 1.1//EN" "http://www.w3.org/Graphics/SVG/1.1/DTD/svg11.dtd">
<svg version="1.1" xmlns="http://www.w3.org/2000/svg" xmlns:xlink="http://www.w3.org/1999/xlink" x="0px" y="0px" width="64px"
	 height="64px" viewBox="0 0 64 64" enable-background="new 0 0 64 64" xml:space="preserve">
<g id="Layer_6">
	<path d="M9.317,18.768v14.623v1.033v4.622h0.009v7.462h13.157v-7.462h0.011v-4.622v-1.033V18.768H9.317z M21.494,19.768v13.623
		h-1.089h-1h-1h-1h-1h-1h-1h-1h-1h-1h-1.088V19.768H21.494z M10.317,34.424h1.088v3.622h-1.088V34.424z M12.405,34.424h1v3.622h-1
		V34.424z M14.405,34.424h1v3.622h-1V34.424z M16.405,34.424h1v3.622h-1V34.424z M18.405,34.424h1v3.622h-1V34.424z M20.405,34.424
		h1.089v3.622h-1.089V34.424z"/>
	<path d="M25.389,12.713v12.941v0.941v8.941v11.006h13.157V35.537v-8.941v-0.941V12.713H25.389z M35.5,34.537h-1v-7.883h1V34.537z
		 M36.5,26.654h1.046v7.883H36.5V26.654z M29.5,26.654v7.883h-1v-7.883H29.5z M30.5,26.654h1v7.883h-1V26.654z M32.5,26.654h1v7.883
		h-1V26.654z M26.389,26.654H27.5v7.883h-1.111V26.654z M26.389,13.713h11.157v11.883H26.389V13.713z"/>
	<path d="M41.451,17.5v3.867v1.016v16.6v7.561h13.157v-7.561v-16.6v-1.016V17.5H41.451z M48.5,22.383h1v15.6h-1V22.383z
		 M47.5,37.982h-1v-15.6h1V37.982z M45.5,22.383v15.6h-1v-15.6H45.5z M50.5,22.383h1v15.6h-1V22.383z M42.451,22.383H43.5v15.6
		h-1.049V22.383z M53.608,37.982H52.5v-15.6h1.108V37.982z M52.5,21.367h-1h-1h-1h-1h-1h-1h-1h-1h-1h-1.049V18.5h11.157v2.867H52.5z
		"/>
</g>
</svg>
