<?xml version="1.0" encoding="utf-8"?>
<!-- Generator: Adobe Illustrator 16.0.4, SVG Export Plug-In . SVG Version: 6.00 Build 0)  -->
<!DOCTYPE svg PUBLIC "-//W3C//DTD SVG 1.1//EN" "http://www.w3.org/Graphics/SVG/1.1/DTD/svg11.dtd">
<svg version="1.1" id="Layer_1" xmlns="http://www.w3.org/2000/svg" xmlns:xlink="http://www.w3.org/1999/xlink" x="0px" y="0px"
	 width="64px" height="64px" viewBox="0 0 64 64" enable-background="new 0 0 64 64" xml:space="preserve">
<g id="Layer_10">
	<g>
		<path fill="#1484C6" d="M33.439,41.057c0,0.959-0.42,1.5-1.5,1.5c-1.08,0-1.5-0.541-1.5-1.5v-9.601l-5.91-7.68v-3.06
			c0-0.96,0.42-1.5,1.5-1.5c1.08,0,1.5,0.54,1.5,1.5v2.04l4.41,5.73l4.411-5.73v-2.04c0-0.96,0.42-1.5,1.5-1.5s1.5,0.54,1.5,1.5
			v3.06l-5.91,7.68V41.057L33.439,41.057z"/>
	</g>
</g>
<line fill="none" stroke="#4C5156" stroke-width="2" stroke-miterlimit="10" x1="19.083" y1="48.031" x2="19.083" y2="10.146"/>
</svg>
