<?xml version="1.0" encoding="utf-8"?>
<!-- Generator: Adobe Illustrator 16.0.4, SVG Export Plug-In . SVG Version: 6.00 Build 0)  -->
<!DOCTYPE svg PUBLIC "-//W3C//DTD SVG 1.1//EN" "http://www.w3.org/Graphics/SVG/1.1/DTD/svg11.dtd">
<svg version="1.1" id="Layer_1" xmlns="http://www.w3.org/2000/svg" xmlns:xlink="http://www.w3.org/1999/xlink" x="0px" y="0px"
	 width="64px" height="36.75px" viewBox="0 13 64 36.75" enable-background="new 0 13 64 36.75" xml:space="preserve">
<g id="Gray">
	<g id="Layer_1_1_" display="none">
		<g display="inline" opacity="0.2">
			<path d="M32,3c15.99,0,29,13.01,29,29S47.99,61,32,61C16.009,61,3,47.99,3,32C3,16.009,16.009,3,32,3 M32,0
				C14.326,0,0,14.326,0,32c0,17.673,14.327,32,32,32s32-14.327,32-32C64,14.326,49.673,0,32,0L32,0z"/>
		</g>
	</g>
	<g id="Layer_3" display="none">
		<g display="inline" opacity="0.1">
			<line fill="none" stroke="#000000" stroke-width="0.5" stroke-miterlimit="10" x1="6.708" y1="31.949" x2="55.965" y2="31.949"/>
			<g>
				
					<line fill="none" stroke="#000000" stroke-width="0.5" stroke-miterlimit="10" x1="43.119" y1="15.961" x2="43.119" y2="45.936"/>
				
					<line fill="none" stroke="#000000" stroke-width="0.5" stroke-miterlimit="10" x1="53.906" y1="18.961" x2="53.906" y2="42.938"/>
				
					<line fill="none" stroke="#000000" stroke-width="0.5" stroke-miterlimit="10" x1="32.333" y1="18.961" x2="32.333" y2="42.936"/>
				
					<line fill="none" stroke="#000000" stroke-width="0.5" stroke-miterlimit="10" x1="21.546" y1="15.961" x2="21.546" y2="45.936"/>
				
					<line fill="none" stroke="#000000" stroke-width="0.5" stroke-miterlimit="10" x1="10.759" y1="18.961" x2="10.759" y2="42.936"/>
			</g>
		</g>
	</g>
	<g>
		<path fill="none" stroke="#1C588E" stroke-width="2" stroke-miterlimit="10" d="M35.695,41.331"/>
	</g>
	<path fill="#76899B" d="M59.706,28.631c-1.392,0-2.565,0.896-3.009,2.137h-3.371c0.04,0.203,0.066,0.411,0.066,0.626
		c0,0.494-0.121,0.956-0.32,1.374h3.582c0.4,1.312,1.609,2.275,3.052,2.275c1.769,0,3.206-1.438,3.206-3.205
		C62.912,30.069,61.475,28.631,59.706,28.631z"/>
	<path fill="#76899B" d="M50.188,34.6c-0.426,0-0.83-0.088-1.201-0.238c-0.682,4.677-3.418,5.849-10.606,6.056
		c-0.397-1.319-1.608-2.29-3.057-2.29c-0.208,0-0.41,0.023-0.607,0.062l-10.78-15.411c0.296-0.485,0.477-1.049,0.477-1.659
		c0-1.769-1.438-3.207-3.206-3.207S18,19.351,18,21.119c0,0.609,0.18,1.173,0.476,1.658L7.633,38.275
		c-0.292-0.09-0.597-0.15-0.917-0.15c-1.768,0-3.206,1.438-3.206,3.207c0,1.768,1.438,3.205,3.206,3.205
		c1.768,0,3.206-1.438,3.206-3.205c0-0.721-0.247-1.377-0.648-1.913l10.728-15.334c0.373,0.152,0.778,0.239,1.204,0.239
		c0.426,0,0.831-0.087,1.204-0.239l10.558,15.09c-0.523,0.57-0.851,1.324-0.851,2.157c0,1.768,1.438,3.205,3.206,3.205
		c1.382,0,2.552-0.883,3.001-2.111c7.234-0.166,11.656-1.277,12.635-7.933C50.71,34.557,50.454,34.6,50.188,34.6z"/>
</g>
<g id="Blue">
	<path fill="#1F85C4" d="M51.01,28.307c-0.764-6.764-4.396-8.141-12.271-8.356c-0.411-1.297-1.611-2.245-3.042-2.245
		c-1.768,0-3.206,1.438-3.206,3.207c0,1.415,0.929,2.605,2.204,3.029V38.16l0.02,0.027c0.197-0.037,0.398-0.062,0.607-0.062
		c0.494,0,0.957,0.12,1.373,0.321V23.942c0.949-0.314,1.697-1.053,2.021-1.998c7.28,0.178,9.756,1.269,10.316,6.465
		c-1.198,0.465-2.053,1.623-2.053,2.984c0,1.343,0.83,2.49,2.004,2.966l0,0c0.186,0.076,0.379,0.136,0.578,0.176
		c0.203,0.04,0.41,0.062,0.623,0.062c0.172,0,0.338-0.023,0.502-0.051c0.09-0.016,0.182-0.031,0.27-0.054l0,0
		c1.395-0.347,2.436-1.601,2.436-3.101C53.395,29.911,52.378,28.673,51.01,28.307z"/>
	<g>
		<path fill="#1F85C4" d="M32.967,39.176l-0.925-1.32l-7.733-4.86c0.061-0.247,0.103-0.502,0.103-0.768
			c0-1.769-1.438-3.208-3.206-3.208c-1.416,0-2.606,0.929-3.03,2.206h-3.169l-1.399,2h4.567c0.422,1.277,1.614,2.207,3.031,2.207
			c0.775,0,1.478-0.287,2.033-0.748l9.043,5.685C32.427,39.922,32.656,39.514,32.967,39.176z"/>
		<path fill="#1F85C4" d="M12.566,31.225H7.237c-0.423-1.277-1.614-2.207-3.031-2.207C2.438,29.018,1,30.456,1,32.225
			c0,1.768,1.438,3.205,3.206,3.205c1.416,0,2.607-0.929,3.03-2.205h3.931L12.566,31.225z"/>
	</g>
</g>
<g id="White">
	<circle fill="#FFFFFF" cx="6.716" cy="41.331" r="1.206"/>
	<circle fill="#FFFFFF" cx="21.206" cy="21.118" r="1.206"/>
	<circle fill="#FFFFFF" cx="35.322" cy="41.332" r="1.206"/>
	<circle fill="#FFFFFF" cx="59.706" cy="31.837" r="1.206"/>
	<circle fill="#FFFFFF" cx="4.206" cy="32.224" r="1.206"/>
	<circle fill="#FFFFFF" cx="21.206" cy="32.225" r="1.206"/>
	<circle fill="#FFFFFF" cx="35.697" cy="20.911" r="1.206"/>
	<circle fill="#FFFFFF" cx="50.188" cy="31.393" r="1.206"/>
</g>
</svg>
