<?xml version="1.0" encoding="utf-8"?>
<!-- Generator: Adobe Illustrator 16.0.4, SVG Export Plug-In . SVG Version: 6.00 Build 0)  -->
<!DOCTYPE svg PUBLIC "-//W3C//DTD SVG 1.1//EN" "http://www.w3.org/Graphics/SVG/1.1/DTD/svg11.dtd">
<svg version="1.1" xmlns="http://www.w3.org/2000/svg" xmlns:xlink="http://www.w3.org/1999/xlink" x="0px" y="0px" width="64px"
	 height="64px" viewBox="0 0 64 64" enable-background="new 0 0 64 64" xml:space="preserve">
<g id="Layer_1">
	<polygon fill="none" stroke="#4C5156" stroke-width="2" stroke-miterlimit="10" points="9.826,29.391 9.826,46.508 18.833,46.508 
		18.833,29.391 	"/>
	<polygon fill="none" stroke="#1F85C4" stroke-width="2" stroke-miterlimit="10" points="20.7,18.75 20.7,46.508 29.707,46.508 
		29.707,18.75 	"/>
	<polygon fill="none" stroke="#4C5156" stroke-width="2" stroke-miterlimit="10" points="35.326,34.391 35.326,46.508 
		44.333,46.508 44.333,34.391 	"/>
	<polygon fill="none" stroke="#1F85C4" stroke-width="2" stroke-miterlimit="10" points="46.242,23.75 46.242,46.508 55.249,46.508 
		55.249,23.75 	"/>
</g>
<g id="Layer_2">
	<line fill="none" stroke="#4C5156" stroke-width="2" stroke-miterlimit="10" x1="12.833" y1="45.75" x2="12.833" y2="29.375"/>
	<line fill="none" stroke="#4C5156" stroke-width="2" stroke-miterlimit="10" x1="15.833" y1="45.75" x2="15.833" y2="29.75"/>
	<line fill="none" stroke="#1F85C4" stroke-width="2" stroke-miterlimit="10" x1="23.707" y1="45.75" x2="23.707" y2="18.734"/>
	<line fill="none" stroke="#1F85C4" stroke-width="2" stroke-miterlimit="10" x1="26.708" y1="45.75" x2="26.708" y2="19.109"/>
	<line fill="none" stroke="#4C5156" stroke-width="2" stroke-miterlimit="10" x1="38.333" y1="45.75" x2="38.333" y2="34.375"/>
	<line fill="none" stroke="#4C5156" stroke-width="2" stroke-miterlimit="10" x1="41.334" y1="45.75" x2="41.334" y2="34.75"/>
	<line fill="none" stroke="#1F85C4" stroke-width="2" stroke-miterlimit="10" x1="49.249" y1="45.75" x2="49.249" y2="23.734"/>
	<line fill="none" stroke="#1F85C4" stroke-width="2" stroke-miterlimit="10" x1="52.249" y1="45.75" x2="52.249" y2="24.109"/>
</g>
</svg>
