<?xml version="1.0" encoding="utf-8"?>
<!-- Generator: Adobe Illustrator 16.0.4, SVG Export Plug-In . SVG Version: 6.00 Build 0)  -->
<!DOCTYPE svg PUBLIC "-//W3C//DTD SVG 1.1//EN" "http://www.w3.org/Graphics/SVG/1.1/DTD/svg11.dtd">
<svg version="1.1" id="Layer_1" xmlns="http://www.w3.org/2000/svg" xmlns:xlink="http://www.w3.org/1999/xlink" x="0px" y="0px"
	 width="1624px" height="1200px" viewBox="0 0 1624 1200" enable-background="new 0 0 1624 1200" xml:space="preserve">
<g>
	<path fill="#7C8D9B" d="M821.634,330.474H677.445V135.018h93.584l50.604,50.604L821.634,330.474L821.634,330.474z M680.648,327.27
		H818.43V186.948l-48.728-48.727h-89.055L680.648,327.27L680.648,327.27z"/>
	<path fill="#7C8D9B" d="M821.634,330.474H677.445V135.018h92.922v51.267h51.268L821.634,330.474L821.634,330.474z M680.648,327.27
		H818.43V189.488h-51.269v-51.266h-86.514L680.648,327.27L680.648,327.27z"/>
	<g>
		<path fill="#7C8D9B" d="M713.636,307.966h-4.038v-4.935h4.038V307.966z"/>
		<path fill="#7C8D9B" d="M722.383,307.966h-3.141v-29.16h3.141v13.011h8.839v-13.011h3.142v29.16h-3.142v-13.458h-8.839V307.966z"
			/>
		<path fill="#7C8D9B" d="M752.304,278.806v2.694h-5.831v26.466h-3.141V281.5H737.5v-2.694H752.304z"/>
		<path fill="#7C8D9B" d="M758.584,307.966h-3.142v-29.16h4.711l5.111,19.244l5.16-19.244h4.709v29.16h-3.141v-24.135l-5.247,19.65
			h-2.916l-5.25-19.65v24.135H758.584z"/>
		<path fill="#7C8D9B" d="M781.416,307.966v-29.16h3.141v26.469h8.209v2.691H781.416z"/>
	</g>
</g>
<g>
	<path fill="#7C8D9B" d="M533.995,888.737H389.806V693.281h93.585l50.604,50.604V888.737z M393.011,885.533h137.781V745.212
		l-48.728-48.728H393.01L393.011,885.533L393.011,885.533z"/>
	<path fill="#7C8D9B" d="M533.995,888.737H389.806V693.281h92.923v51.268h51.269L533.995,888.737L533.995,888.737z M393.011,885.533
		h137.781V747.752h-51.268v-51.268H393.01L393.011,885.533L393.011,885.533z"/>
	<path fill="#7C8D9B" d="M422.658,866.229h-4.037v-4.935h4.037V866.229z"/>
	<path fill="#7C8D9B" d="M431.021,837.069h8.974v24c0,1.915-0.539,3.365-1.615,4.354c-1.077,0.985-2.572,1.479-4.487,1.479
		c-1.914,0-3.395-0.494-4.438-1.479c-1.047-0.985-1.571-2.438-1.571-4.354v-2.916h3.143v3.099c0,1.972,0.956,2.96,2.87,2.96
		c1.976,0,2.963-0.988,2.963-2.96v-21.487h-5.834L431.021,837.069L431.021,837.069z"/>
	<path fill="#7C8D9B" d="M460.089,860.622c0,4.187-2.528,6.279-7.582,6.279s-7.581-2.096-7.581-6.279v-3.814h3.142v3.993
		c0,1.076,0.374,1.915,1.122,2.514c0.746,0.599,1.854,0.896,3.317,0.896c1.466,0,2.572-0.301,3.32-0.896
		c0.748-0.597,1.121-1.411,1.121-2.443c0-1.031-0.111-1.854-0.336-2.466c-0.227-0.612-0.682-1.266-1.368-1.952l-7.896-7.717
		c-0.928-0.928-1.562-1.833-1.905-2.718c-0.344-0.879-0.517-1.994-0.517-3.342c0-2.003,0.62-3.549,1.862-4.642
		c1.24-1.092,3.116-1.637,5.629-1.637c4.813,0,7.222,2.091,7.222,6.275v3.813h-3.14V842.5c0-1.079-0.353-1.914-1.056-2.517
		c-0.701-0.596-1.759-0.896-3.162-0.896c-1.405,0-2.461,0.301-3.161,0.896c-0.704,0.603-1.056,1.421-1.056,2.469
		c0,1.05,0.104,1.868,0.312,2.471c0.208,0.594,0.673,1.229,1.389,1.884l8.031,7.717c0.867,0.957,1.464,1.873,1.794,2.758
		C459.925,858.163,460.089,859.276,460.089,860.622z"/>
	<path fill="#7C8D9B" d="M480.051,842.677v17.945c0,2.006-0.637,3.552-1.906,4.644c-1.271,1.094-3.171,1.639-5.696,1.639
		c-2.527,0-4.436-0.545-5.722-1.639c-1.284-1.092-1.929-2.638-1.929-4.644v-17.945c0-2.003,0.635-3.549,1.907-4.642
		c1.27-1.092,3.169-1.637,5.695-1.637c2.525,0,4.435,0.545,5.721,1.637C479.406,839.128,480.051,840.674,480.051,842.677z
		 M476.911,860.622v-17.945c0-2.392-1.496-3.586-4.487-3.586c-2.99,0-4.483,1.194-4.483,3.586v17.945
		c0,2.394,1.494,3.589,4.483,3.589C475.415,864.211,476.911,863.016,476.911,860.622z"/>
	<path fill="#7C8D9B" d="M488.799,866.229h-3.14V837.07h3.14l9.735,22.431V837.07h3.14v29.158h-3.14l-9.735-22.43V866.229z"/>
</g>
<g>
	<path fill="#7C8D9B" d="M1448.245,611.084h-144.188V415.628h93.586l50.604,50.604L1448.245,611.084L1448.245,611.084z
		 M1307.261,607.88h137.78V467.559l-48.727-48.728h-89.057L1307.261,607.88L1307.261,607.88z"/>
	<path fill="#7C8D9B" d="M1448.245,611.084h-144.188V415.628h92.922v51.268h51.27L1448.245,611.084L1448.245,611.084z
		 M1307.261,607.88h137.78V470.099h-51.267v-51.268h-86.517L1307.261,607.88L1307.261,607.88z"/>
	<path fill="#7C8D9B" d="M1356.134,588.576h-4.039v-4.937h4.039V588.576z"/>
	<path fill="#7C8D9B" d="M1364.498,559.416h8.972v24c0,1.915-0.538,3.367-1.612,4.354c-1.076,0.985-2.572,1.479-4.487,1.479
		c-1.911,0-3.396-0.494-4.439-1.479c-1.045-0.983-1.569-2.438-1.569-4.354V580.5h3.143v3.099c0,1.974,0.958,2.96,2.869,2.96
		c1.975,0,2.964-0.986,2.964-2.96v-21.485h-5.833v-2.695L1364.498,559.416L1364.498,559.416z"/>
	<path fill="#7C8D9B" d="M1393.564,582.97c0,4.188-2.528,6.279-7.582,6.279c-5.056,0-7.578-2.094-7.578-6.279v-3.812h3.139v3.993
		c0,1.074,0.372,1.915,1.123,2.513c0.744,0.598,1.854,0.896,3.316,0.896c1.465,0,2.569-0.301,3.317-0.896s1.123-1.412,1.123-2.444
		c0-1.029-0.11-1.853-0.338-2.466c-0.226-0.612-0.682-1.264-1.37-1.952l-7.892-7.717c-0.933-0.926-1.564-1.833-1.909-2.716
		c-0.344-0.879-0.513-1.996-0.513-3.342c0-2.005,0.618-3.551,1.855-4.644c1.242-1.092,3.116-1.637,5.632-1.637
		c4.813,0,7.226,2.091,7.226,6.277v3.812h-3.144v-3.989c0-1.079-0.352-1.914-1.056-2.517c-0.704-0.594-1.756-0.896-3.163-0.896
		c-1.404,0-2.46,0.303-3.161,0.896c-0.704,0.603-1.054,1.421-1.054,2.469c0,1.05,0.104,1.868,0.314,2.472
		c0.207,0.595,0.67,1.228,1.391,1.885l8.029,7.716c0.864,0.958,1.464,1.874,1.796,2.757
		C1393.398,580.51,1393.564,581.623,1393.564,582.97z"/>
</g>
<g>
	<path fill="#7C8D9B" d="M284.219,700.924H140.031V505.469h93.585l50.603,50.604V700.924z M143.236,697.721h137.778V557.398
		l-48.725-48.727h-89.056V697.72L143.236,697.721L143.236,697.721z"/>
	<path fill="#7C8D9B" d="M284.219,700.924H140.031V505.469h92.922v51.269h51.266V700.924z M143.236,697.721h137.778V559.939h-51.266
		v-51.268h-86.515V697.72L143.236,697.721L143.236,697.721z"/>
	<g>
		<path fill="#7C8D9B" d="M185.575,678.416h-4.038v-4.934h4.038V678.416z"/>
		<path fill="#7C8D9B" d="M198.361,678.416h-3.141v-10.454l-7.4-18.706h3.318l5.651,15.029l5.651-15.029h3.32l-7.402,18.754v10.406
			H198.361L198.361,678.416z"/>
		<path fill="#7C8D9B" d="M211.815,678.416h-3.14v-29.16h4.711L218.5,668.5l5.159-19.244h4.71v29.16h-3.141v-24.134l-5.248,19.647
			h-2.916l-5.25-19.647L211.815,678.416L211.815,678.416z"/>
		<path fill="#7C8D9B" d="M234.649,678.416v-29.16h3.141v26.469h8.209v2.69L234.649,678.416L234.649,678.416z"/>
	</g>
</g>
<g>
	<path fill="#7C8D9B" d="M1025.198,859.143H881.01V663.688h93.585l50.604,50.604L1025.198,859.143L1025.198,859.143z
		 M884.214,855.939h137.781V715.617l-48.729-48.729h-89.055L884.214,855.939L884.214,855.939z"/>
	<path fill="#7C8D9B" d="M1025.198,859.143H881.01V663.688h92.922v51.269h51.27L1025.198,859.143L1025.198,859.143z
		 M884.214,855.939h137.781V718.157h-51.269V666.89h-86.516L884.214,855.939L884.214,855.939z"/>
	<g>
		<path fill="#7C8D9B" d="M932.341,836.635h-4.037V831.7h4.037V836.635z"/>
		<path fill="#7C8D9B" d="M941.089,836.635h-3.141v-29.16h4.711l5.112,19.244l5.158-19.244h4.709v29.16h-3.14V812.5l-5.247,19.65
			h-2.916l-5.249-19.65L941.089,836.635L941.089,836.635z"/>
		<path fill="#7C8D9B" d="M971.143,836.635h-7.223v-29.16h7.223c2.332,0,4.104,0.56,5.315,1.661
			c1.211,1.104,1.815,2.647,1.815,4.622v16.6c0,2.003-0.6,3.552-1.795,4.644C975.285,836.087,973.505,836.635,971.143,836.635z
			 M975.135,830.354v-16.597c0-0.957-0.353-1.796-1.055-2.513s-1.684-1.076-2.938-1.076h-4.082v23.774h4.082
			c1.257,0,2.234-0.354,2.938-1.058C974.782,832.189,975.135,831.344,975.135,830.354z"/>
	</g>
</g>
<g>
	<path fill="#7C8D9B" d="M1234.219,1186.924h-144.188V991.468h93.585l50.603,50.604V1186.924z M1093.236,1183.721h137.776v-140.322
		l-48.725-48.727h-89.058v189.049H1093.236z"/>
	<path fill="#7C8D9B" d="M1234.219,1186.924h-144.188V991.468h92.922v51.269h51.266V1186.924z M1093.236,1183.721h137.776v-137.781
		h-51.266v-51.268h-86.517v189.049H1093.236z"/>
	<g>
		<path fill="#7C8D9B" d="M1135.575,1164.416h-4.038v-4.936h4.038V1164.416z"/>
		<path fill="#7C8D9B" d="M1148.361,1164.416h-3.143v-10.454l-7.398-18.706h3.316l5.651,15.028l5.649-15.028h3.32l-7.402,18.753
			v10.407H1148.361z"/>
		<path fill="#7C8D9B" d="M1161.816,1164.416h-3.143v-29.16h4.711l5.113,19.244l5.159-19.244h4.71v29.16h-3.141v-24.136
			l-5.248,19.648h-2.916l-5.25-19.648v24.136H1161.816z"/>
		<path fill="#7C8D9B" d="M1184.65,1164.416v-29.16h3.14v26.469h8.209v2.691H1184.65z"/>
	</g>
</g>
</svg>
