<?xml version="1.0" encoding="utf-8"?>
<!-- Generator: Adobe Illustrator 16.0.1, SVG Export Plug-In . SVG Version: 6.00 Build 0)  -->
<!DOCTYPE svg PUBLIC "-//W3C//DTD SVG 1.1//EN" "http://www.w3.org/Graphics/SVG/1.1/DTD/svg11.dtd">
<svg version="1.1" id="Layer_2" xmlns="http://www.w3.org/2000/svg" xmlns:xlink="http://www.w3.org/1999/xlink" x="0px" y="0px"
	 width="64px" height="64px" viewBox="0 0 64 64" enable-background="new 0 0 64 64" xml:space="preserve">
<g>
	<path fill="#4C5156" d="M32.766,51.38c-10.287,0-18.656-8.372-18.656-18.663c0-10.289,8.369-18.66,18.656-18.66
		c10.291,0,18.663,8.371,18.663,18.66C51.429,43.008,43.057,51.38,32.766,51.38z M32.766,21.543c-6.159,0-11.17,5.012-11.17,11.173
		c0,6.163,5.011,11.177,11.17,11.177c6.163,0,11.177-5.014,11.177-11.177C43.942,26.556,38.929,21.543,32.766,21.543z"/>
</g>
<g>
	<path fill="#1F85C4" d="M32.773,51.38c-4.207,0-8.179-1.366-11.486-3.95l4.607-5.9c1.98,1.545,4.358,2.364,6.879,2.364
		c6.158,0,11.169-5.014,11.169-11.177S38.932,21.54,32.773,21.54v-7.487c10.286,0,18.655,8.373,18.655,18.664
		C51.429,43.008,43.06,51.38,32.773,51.38z"/>
</g>
</svg>
