<?xml version="1.0" encoding="utf-8"?>
<!-- Generator: Adobe Illustrator 16.0.4, SVG Export Plug-In . SVG Version: 6.00 Build 0)  -->
<!DOCTYPE svg PUBLIC "-//W3C//DTD SVG 1.1//EN" "http://www.w3.org/Graphics/SVG/1.1/DTD/svg11.dtd">
<svg version="1.1" id="Layer_1" xmlns="http://www.w3.org/2000/svg" xmlns:xlink="http://www.w3.org/1999/xlink" x="0px" y="0px"
	 width="64px" height="64px" viewBox="0 0 64 64" enable-background="new 0 0 64 64" xml:space="preserve">
<polygon fill="none" stroke="#1F85C4" stroke-width="2" stroke-miterlimit="10" points="8.75,46 16.75,20.375 27.5,27.75 
	39.5,17.625 51.125,23.625 54.25,23.875 54.25,46 "/>
<line fill="none" stroke="#1F85C4" stroke-width="2" stroke-miterlimit="10" x1="12.5" y1="46.125" x2="12.5" y2="33.938"/>
<line fill="none" stroke="#1F85C4" stroke-width="2" stroke-miterlimit="10" x1="15.5" y1="46.125" x2="15.5" y2="24.375"/>
<line fill="none" stroke="#1F85C4" stroke-width="2" stroke-miterlimit="10" x1="18.5" y1="46.125" x2="18.5" y2="22.125"/>
<line fill="none" stroke="#1F85C4" stroke-width="2" stroke-miterlimit="10" x1="21.5" y1="46.125" x2="21.5" y2="23.5"/>
<line fill="none" stroke="#1F85C4" stroke-width="2" stroke-miterlimit="10" x1="24.5" y1="46.125" x2="24.5" y2="26.125"/>
<line fill="none" stroke="#1F85C4" stroke-width="2" stroke-miterlimit="10" x1="27.5" y1="46.125" x2="27.5" y2="26.75"/>
<line fill="none" stroke="#1F85C4" stroke-width="2" stroke-miterlimit="10" x1="30.5" y1="46.125" x2="30.5" y2="25"/>
<line fill="none" stroke="#1F85C4" stroke-width="2" stroke-miterlimit="10" x1="33.5" y1="46.125" x2="33.5" y2="22.75"/>
<line fill="none" stroke="#1F85C4" stroke-width="2" stroke-miterlimit="10" x1="36.5" y1="46.125" x2="36.5" y2="19.75"/>
<line fill="none" stroke="#1F85C4" stroke-width="2" stroke-miterlimit="10" x1="39.5" y1="46.125" x2="39.5" y2="17.875"/>
<line fill="none" stroke="#1F85C4" stroke-width="2" stroke-miterlimit="10" x1="42.5" y1="46.125" x2="42.5" y2="19.625"/>
<line fill="none" stroke="#1F85C4" stroke-width="2" stroke-miterlimit="10" x1="45.5" y1="46.125" x2="45.5" y2="20.375"/>
<line fill="none" stroke="#1F85C4" stroke-width="2" stroke-miterlimit="10" x1="48.5" y1="46.125" x2="48.5" y2="22.125"/>
<line fill="none" stroke="#1F85C4" stroke-width="2" stroke-miterlimit="10" x1="51.5" y1="46.125" x2="51.5" y2="23.625"/>
<polygon fill="none" stroke="#4C5156" stroke-width="2" stroke-miterlimit="10" points="8.75,46 20.875,28.75 27.5,38.75 
	39.5,28.625 51.125,30.625 54.25,27.875 54.25,46 "/>
<line fill="none" stroke="#4C5156" stroke-width="2" stroke-miterlimit="10" x1="12.5" y1="46.125" x2="12.5" y2="40.75"/>
<line fill="none" stroke="#4C5156" stroke-width="2" stroke-miterlimit="10" x1="15.5" y1="46.125" x2="15.5" y2="36.375"/>
<line fill="none" stroke="#4C5156" stroke-width="2" stroke-miterlimit="10" x1="18.5" y1="46.125" x2="18.5" y2="32"/>
<line fill="none" stroke="#4C5156" stroke-width="2" stroke-miterlimit="10" x1="21.5" y1="46.125" x2="21.5" y2="30"/>
<line fill="none" stroke="#4C5156" stroke-width="2" stroke-miterlimit="10" x1="24.5" y1="46.125" x2="24.5" y2="34.125"/>
<line fill="none" stroke="#4C5156" stroke-width="2" stroke-miterlimit="10" x1="27.5" y1="46.125" x2="27.5" y2="37.75"/>
<line fill="none" stroke="#4C5156" stroke-width="2" stroke-miterlimit="10" x1="30.5" y1="46.125" x2="30.5" y2="36"/>
<line fill="none" stroke="#4C5156" stroke-width="2" stroke-miterlimit="10" x1="33.5" y1="46.125" x2="33.5" y2="33.75"/>
<line fill="none" stroke="#4C5156" stroke-width="2" stroke-miterlimit="10" x1="36.5" y1="46.125" x2="36.5" y2="30.75"/>
<line fill="none" stroke="#4C5156" stroke-width="2" stroke-miterlimit="10" x1="39.5" y1="46.125" x2="39.5" y2="28.875"/>
<line fill="none" stroke="#4C5156" stroke-width="2" stroke-miterlimit="10" x1="42.5" y1="46.125" x2="42.5" y2="28.625"/>
<line fill="none" stroke="#4C5156" stroke-width="2" stroke-miterlimit="10" x1="45.5" y1="46.125" x2="45.5" y2="29.375"/>
<line fill="none" stroke="#4C5156" stroke-width="2" stroke-miterlimit="10" x1="48.5" y1="46.125" x2="48.5" y2="30.125"/>
<line fill="none" stroke="#4C5156" stroke-width="2" stroke-miterlimit="10" x1="51.5" y1="46.125" x2="51.5" y2="29.625"/>
</svg>
