<?xml version="1.0" encoding="utf-8"?>
<!-- Generator: Adobe Illustrator 16.0.4, SVG Export Plug-In . SVG Version: 6.00 Build 0)  -->
<!DOCTYPE svg PUBLIC "-//W3C//DTD SVG 1.1//EN" "http://www.w3.org/Graphics/SVG/1.1/DTD/svg11.dtd">
<svg version="1.1" id="Layer_1" xmlns="http://www.w3.org/2000/svg" xmlns:xlink="http://www.w3.org/1999/xlink" x="0px" y="0px"
	 width="64px" height="64px" viewBox="0 0 64 64" enable-background="new 0 0 64 64" xml:space="preserve">
<g id="Layer_11">
	<g>
		<path fill="#1484C6" d="M30.167,30.699l-5.34-9.18c-0.21-0.33-0.36-0.66-0.36-1.08c0-0.78,0.72-1.41,1.47-1.41
			c0.99,0,1.32,0.75,1.74,1.47l4.2,7.17l4.2-7.17c0.42-0.72,0.75-1.47,1.739-1.47c0.75,0,1.471,0.63,1.471,1.41
			c0,0.42-0.15,0.75-0.359,1.08l-5.34,9.18l5.34,9.18c0.209,0.329,0.359,0.659,0.359,1.079c0,0.78-0.721,1.41-1.471,1.41
			c-0.989,0-1.319-0.75-1.739-1.47l-4.2-7.17l-4.2,7.17c-0.42,0.72-0.75,1.47-1.74,1.47c-0.75,0-1.47-0.63-1.47-1.41
			c0-0.42,0.15-0.75,0.36-1.079L30.167,30.699z"/>
	</g>
</g>
<line fill="none" stroke="#4C5156" stroke-width="2" stroke-miterlimit="10" x1="23.867" y1="48.459" x2="39.887" y2="48.459"/>
</svg>
